<?xml version="1.0" standalone="no"?>
<!DOCTYPE svg PUBLIC "-//W3C//DTD SVG 20010904//EN"
 "http://www.w3.org/TR/2001/REC-SVG-20010904/DTD/svg10.dtd">
<svg version="1.0" xmlns="http://www.w3.org/2000/svg"
 width="1000.000000pt" height="667.000000pt" viewBox="0 0 1000.000000 667.000000"
 preserveAspectRatio="xMidYMid meet">

<g transform="translate(0.000000,667.000000) scale(0.100000,-0.100000)"
fill="#000000" stroke="none">
<path d="M5770 6666 c0 -3 16 -22 36 -42 38 -37 89 -64 123 -64 11 0 22 -4 25
-8 13 -22 -217 13 -248 37 -6 4 -22 5 -36 1 -25 -6 -25 -7 -3 -14 19 -6 21
-12 16 -44 -6 -41 -23 -65 -30 -44 -8 21 -30 13 -29 -10 1 -19 -5 -24 -31 -26
-32 -3 -48 -22 -19 -22 7 0 19 -7 26 -15 10 -12 10 -15 -4 -15 -9 0 -16 -6
-16 -14 0 -7 -6 -19 -14 -25 -11 -10 -26 -7 -67 14 -29 15 -60 35 -68 46 -9
10 -28 21 -43 25 -25 5 -28 3 -28 -17 0 -15 -3 -19 -8 -12 -4 6 -16 11 -27 10
-11 -1 -21 5 -23 16 -3 15 2 17 32 15 20 -1 41 3 48 10 7 7 22 12 35 12 13 0
23 4 23 9 0 12 -71 11 -87 -1 -7 -6 -21 -7 -33 -3 -12 4 -27 2 -34 -5 -29 -23
-196 8 -208 39 -1 5 -21 10 -43 11 -54 3 -62 1 -47 -9 9 -5 -4 -11 -37 -15
-28 -4 -51 -11 -51 -16 0 -6 21 -8 54 -4 53 6 116 -10 116 -29 0 -5 8 -6 18
-3 9 3 46 2 81 -2 49 -5 67 -12 78 -28 25 -39 0 -50 -111 -47 -105 3 -103 5
-86 -62 6 -25 8 -27 14 -12 8 17 46 24 46 8 0 -11 -61 -71 -72 -71 -7 0 -12
23 -9 43 0 4 -17 7 -39 7 -38 0 -40 2 -40 30 0 17 -5 30 -10 30 -11 0 -103
-63 -134 -91 -11 -11 -24 -19 -29 -19 -5 0 -4 -6 2 -13 14 -18 4 -27 -31 -27
-15 0 -28 -4 -28 -10 0 -5 -8 -10 -17 -10 -14 0 -11 6 12 26 23 20 27 27 15
34 -15 9 -54 -6 -46 -18 15 -24 -89 -98 -123 -87 -10 3 -31 1 -46 -5 -23 -9
-32 -8 -44 5 -14 13 -12 15 16 15 18 0 35 5 38 10 4 6 -8 10 -29 10 -34 0 -35
0 -31 40 4 39 3 39 -33 45 -20 3 -47 8 -60 11 -18 4 -25 0 -29 -15 -3 -12 -20
-30 -38 -41 -38 -24 -46 -25 -39 -6 4 11 -1 14 -23 13 -39 -3 -45 -37 -6 -37
20 0 24 -3 14 -9 -8 -5 -21 -7 -29 -4 -11 5 -13 1 -7 -15 4 -16 2 -22 -9 -22
-9 0 -23 -11 -32 -25 -9 -14 -24 -25 -34 -25 -14 0 -17 7 -14 31 4 31 3 32
-33 26 -20 -4 -39 -10 -42 -15 -3 -5 -15 -12 -26 -17 -19 -7 -19 -8 5 -14 27
-7 20 -15 -22 -25 -32 -7 -88 -58 -88 -79 0 -16 -34 -28 -56 -20 -9 3 -12 13
-9 23 9 29 -19 43 -70 36 -24 -4 -47 -12 -51 -17 -3 -6 -16 -9 -27 -8 -26 3
-127 -29 -127 -41 0 -9 -25 -16 -134 -35 -43 -8 -84 -19 -89 -24 -8 -8 -7 -11
3 -11 21 0 -28 -47 -57 -55 -15 -3 -23 -11 -20 -19 8 -20 -30 -27 -72 -13 -38
13 -147 12 -165 -2 -6 -4 -31 -13 -56 -20 -25 -7 -55 -17 -68 -22 -13 -5 -33
-9 -45 -9 -13 0 -33 -7 -45 -16 -13 -9 -26 -14 -28 -11 -15 14 -169 -77 -159
-94 3 -4 -17 -25 -44 -47 -27 -21 -62 -54 -78 -73 -15 -19 -32 -36 -36 -38 -5
-1 -20 -14 -35 -27 -14 -14 -41 -32 -60 -41 -19 -9 -36 -23 -39 -32 -2 -9 -9
-24 -14 -34 -7 -13 -5 -19 7 -24 13 -5 12 -10 -13 -35 -15 -16 -38 -40 -51
-52 -12 -13 -22 -28 -22 -34 0 -6 -16 -27 -35 -48 -23 -24 -32 -41 -26 -48 5
-6 11 -45 12 -86 3 -65 2 -75 -14 -78 -18 -4 -24 -22 -7 -22 14 0 -6 -38 -31
-63 -12 -11 -19 -32 -19 -57 0 -22 -4 -40 -9 -40 -4 0 -7 -25 -6 -56 1 -48 -1
-58 -17 -62 -10 -2 -18 -8 -18 -14 0 -5 -8 -4 -19 2 -11 5 -30 10 -43 10 -25
-1 -102 -39 -78 -40 25 0 -4 -20 -36 -23 -31 -4 -74 -37 -74 -57 0 -6 -6 -19
-12 -30 -11 -17 -10 -22 1 -30 12 -7 13 -13 3 -35 -12 -26 -3 -63 15 -57 4 1
9 -2 9 -8 1 -5 2 -15 3 -20 1 -7 8 -7 22 1 17 9 25 8 37 -5 15 -15 15 -16 -1
-16 -10 0 -17 -8 -17 -19 0 -19 -42 -37 -60 -26 -6 4 -10 -5 -10 -19 0 -14
-12 -36 -29 -52 -16 -15 -27 -33 -24 -41 3 -7 -2 -13 -10 -13 -22 0 -31 -18
-16 -36 9 -11 8 -18 -5 -32 -9 -10 -16 -24 -16 -30 0 -7 -5 -12 -10 -12 -6 0
-10 -6 -9 -12 4 -31 -2 -48 -16 -48 -8 0 -15 -5 -15 -11 0 -6 -6 -9 -14 -6
-12 5 -14 -3 -12 -40 3 -52 -17 -103 -41 -103 -8 0 -13 -6 -10 -12 2 -7 -3
-21 -12 -31 -14 -17 -14 -20 -1 -30 8 -7 20 -27 27 -45 11 -30 10 -32 -15 -39
-54 -13 -64 -40 -34 -93 17 -31 17 -32 -6 -47 -12 -9 -22 -20 -22 -26 0 -6
-16 -28 -36 -48 -26 -27 -36 -47 -39 -77 -4 -35 -1 -42 13 -42 15 0 15 -2 2
-10 -8 -5 -10 -10 -4 -10 7 0 14 -7 18 -15 7 -20 -14 -65 -30 -65 -33 0 -69
-115 -44 -144 8 -11 10 -48 5 -139 -7 -112 -6 -126 10 -134 14 -8 15 -14 6
-32 -7 -11 -15 -21 -20 -21 -4 0 -8 -13 -8 -30 0 -27 4 -30 31 -30 17 0 37 -4
45 -9 21 -13 3 -32 -25 -25 -13 3 -24 4 -24 0 0 -3 17 -10 39 -16 21 -5 39
-16 38 -23 -1 -47 1 -49 61 -46 31 2 62 0 69 -4 6 -4 17 -1 25 6 7 8 20 11 28
9 12 -4 13 -3 2 10 -17 21 5 38 58 45 23 3 44 12 47 19 3 8 14 14 24 14 16 0
18 3 10 19 -10 17 -6 20 49 26 33 4 63 13 68 20 4 7 18 15 32 17 17 2 26 10
28 27 3 21 7 23 40 18 49 -8 66 14 47 60 -13 31 -13 33 7 33 14 0 18 5 14 15
-3 10 3 17 18 21 15 3 22 12 22 27 -1 16 5 22 19 22 11 0 26 10 33 23 7 12 16
22 21 22 5 0 11 9 14 19 5 19 81 61 111 61 9 0 16 7 16 16 0 14 3 14 15 4 13
-11 14 -10 9 5 -5 13 -3 16 7 13 8 -3 12 -12 10 -19 -2 -8 -5 -34 -6 -59 -1
-36 -5 -44 -18 -42 -16 3 -22 -9 -18 -32 1 -6 -4 -21 -11 -35 -11 -20 -11 -25
0 -29 10 -3 10 -8 -2 -21 -8 -9 -18 -32 -21 -51 -3 -19 -10 -57 -15 -85 -20
-96 -22 -133 -12 -151 10 -17 12 -16 18 14 6 32 17 41 29 23 3 -5 1 -12 -3
-15 -5 -3 -8 -24 -6 -48 2 -30 -2 -45 -14 -55 -13 -9 -13 -12 -3 -13 9 0 10
-4 3 -13 -21 -26 2 -121 33 -135 14 -7 25 -18 25 -27 0 -8 8 -15 18 -16 161
-8 201 -8 224 2 21 8 39 7 81 -5 53 -15 157 -22 157 -10 0 3 -4 14 -10 24 -8
15 -19 18 -67 14 -48 -3 -54 -2 -33 7 14 6 54 13 89 15 35 2 66 6 69 9 3 3 -2
5 -11 5 -9 0 -17 6 -17 14 0 8 -9 18 -20 21 -11 3 -23 18 -27 33 -3 15 -11 30
-17 34 -7 4 -4 14 8 27 18 20 19 57 1 54 -6 -1 -16 4 -24 10 -12 10 -13 6 -7
-24 7 -41 -1 -72 -17 -62 -7 4 -8 0 -4 -11 4 -10 5 -22 2 -26 -8 -13 -35 0
-35 16 0 8 -10 14 -22 14 -12 0 -29 7 -39 16 -16 14 -17 13 -18 -10 -1 -14 -1
-37 -2 -51 -1 -27 -18 -32 -50 -14 -16 8 -25 7 -38 -5 -17 -15 -19 -15 -32 0
-8 9 -12 29 -11 43 2 20 1 23 -7 11 -18 -26 -30 1 -22 47 5 24 4 43 0 43 -5 0
-9 7 -9 16 0 13 3 14 14 5 11 -9 16 -9 21 -1 4 7 22 10 39 8 31 -3 31 -3 27
32 l-4 35 24 -20 c13 -11 36 -32 51 -48 17 -17 33 -25 40 -21 7 5 8 9 2 11 -6
2 -9 17 -8 33 1 19 -3 30 -11 30 -8 0 -25 14 -38 32 -24 30 -25 33 -9 65 18
38 38 43 48 11 3 -13 16 -48 27 -78 18 -49 21 -52 27 -30 4 15 1 30 -7 38 -18
19 -16 27 12 53 13 13 25 31 25 39 1 11 6 9 19 -7 25 -29 31 -29 31 2 0 16 6
25 16 25 11 0 15 6 11 20 -3 11 -1 20 5 20 5 0 7 4 3 10 -7 11 25 50 42 50 7
0 13 -7 13 -15 0 -8 3 -15 8 -15 19 1 29 18 27 48 -3 30 7 42 19 23 11 -18 53
-18 64 0 7 10 8 20 3 24 -5 3 -12 -1 -14 -7 -4 -8 -6 -7 -6 4 -1 9 -10 20 -21
23 -11 3 -20 10 -20 15 0 19 13 40 25 40 6 0 20 9 30 20 17 18 17 20 2 14 -25
-9 -21 19 5 36 12 8 38 30 59 48 25 22 48 33 71 34 46 2 63 -9 47 -28 -9 -11
-8 -14 4 -14 21 0 57 -48 57 -76 0 -12 5 -35 11 -51 6 -15 10 -30 11 -33 0 -3
3 -9 7 -15 5 -5 11 -23 15 -38 4 -16 18 -46 31 -68 14 -21 25 -41 25 -44 0 -8
146 -206 182 -247 69 -78 248 -200 328 -223 14 -4 32 -13 40 -20 8 -7 42 -22
76 -34 249 -83 502 -63 669 53 33 23 197 168 230 202 127 136 198 277 236 472
14 76 7 213 -16 292 -9 30 -19 75 -22 100 -3 25 -9 50 -13 55 -4 6 -11 24 -14
40 -5 25 -2 35 18 54 14 13 31 21 39 18 8 -3 20 0 26 6 11 11 16 -2 12 -27 -4
-19 23 -24 36 -8 11 15 12 15 13 -5 0 -16 6 -23 19 -23 21 0 81 -57 81 -77 0
-6 10 -15 23 -18 45 -13 87 -40 82 -53 -2 -7 0 -10 5 -7 6 4 31 -14 55 -39 26
-26 56 -46 72 -48 31 -4 76 -71 87 -131 4 -20 11 -37 16 -37 6 0 10 -4 10 -10
0 -5 -6 -10 -14 -10 -7 0 -26 -6 -40 -14 -24 -12 -25 -14 -8 -18 11 -3 27 -1
37 5 14 7 21 5 32 -9 20 -28 28 -67 15 -72 -7 -2 -12 -22 -12 -43 0 -22 -4
-38 -9 -34 -14 8 -21 -9 -23 -52 0 -21 -4 -42 -7 -48 -3 -5 -7 -21 -7 -35 -1
-14 -2 -39 -3 -56 -1 -25 -8 -35 -33 -48 -18 -8 -27 -16 -20 -16 6 0 12 -5 12
-11 0 -6 -8 -8 -17 -5 -10 3 -24 2 -32 -3 -14 -9 -10 -14 34 -36 16 -9 20 -21
21 -68 1 -32 6 -63 13 -70 14 -14 15 -37 1 -37 -5 0 -7 -7 -3 -16 3 -8 12 -13
21 -9 8 3 21 0 28 -6 18 -15 18 -59 0 -59 -7 0 -16 -9 -19 -21 -3 -11 -15 -23
-26 -26 -12 -3 -21 -11 -21 -18 0 -10 7 -11 28 -6 139 41 219 69 291 103 113
53 120 56 162 62 34 6 37 4 37 -18 0 -13 7 -39 16 -57 16 -33 16 -33 -16 -63
-20 -18 -51 -33 -78 -38 -53 -10 -59 -15 -62 -54 -2 -30 -3 -31 -38 -23 -45
11 -120 -15 -120 -42 0 -10 -4 -21 -10 -24 -5 -3 -10 -11 -10 -16 0 -6 5 -7
11 -3 7 4 10 1 7 -6 -2 -7 -13 -16 -24 -21 -18 -6 -21 -3 -20 24 1 36 -29 51
-41 20 -4 -10 -19 -31 -35 -46 l-28 -28 -26 20 c-33 26 -39 26 -75 0 -16 -11
-36 -18 -44 -15 -7 2 -16 0 -19 -7 -3 -9 -7 -8 -14 2 -7 9 -12 10 -16 2 -4 -6
-18 -8 -32 -5 -20 5 -26 2 -31 -15 -4 -15 -11 -20 -21 -16 -8 3 -20 1 -27 -5
-8 -7 -25 -5 -55 5 -23 8 -52 15 -63 15 -20 0 -20 0 -1 -15 19 -14 18 -14 -3
-15 -17 0 -21 -4 -16 -17 6 -17 5 -17 -13 -1 -24 21 -99 34 -108 19 -4 -6 0
-11 9 -11 9 0 14 -4 11 -9 -4 -5 -27 -4 -56 4 -72 19 -190 29 -190 17 0 -6 10
-12 23 -14 12 -2 21 -9 20 -15 -1 -6 6 -9 15 -6 10 2 29 -5 43 -16 l24 -21
-26 6 c-15 3 -30 1 -33 -5 -4 -7 -16 -6 -37 1 -16 5 -38 8 -49 5 -12 -3 -20 0
-20 7 0 7 -6 13 -12 14 -7 0 -33 8 -57 17 -24 9 -56 14 -70 12 -24 -4 -24 -4
4 -6 30 -2 82 -31 56 -31 -11 0 -11 -3 -1 -15 16 -19 5 -34 -12 -17 -15 15
-64 16 -73 2 -3 -5 -2 -10 4 -10 5 0 9 -12 7 -27 -1 -20 -7 -27 -19 -25 -19 3
-23 -18 -6 -35 6 -6 8 -16 4 -23 -12 -20 -37 11 -32 39 6 30 -11 76 -42 110
-17 19 -23 21 -35 12 -11 -10 -13 -19 -5 -38 8 -23 8 -24 -5 -14 -9 7 -21 11
-28 8 -8 -4 -7 -6 5 -6 9 -1 17 -6 17 -11 0 -6 -10 -10 -22 -9 -13 1 -31 1
-42 1 -15 -2 -16 -5 -6 -17 10 -12 10 -22 2 -40 -8 -18 -8 -25 1 -29 7 -2 -1
-4 -18 -4 -16 0 -24 2 -17 5 6 2 10 8 7 12 -2 5 -7 37 -10 71 -6 75 -11 85
-20 36 -7 -33 -9 -35 -29 -24 -21 11 -21 11 -2 -11 17 -19 18 -26 8 -55 -7
-18 -10 -41 -6 -50 4 -11 1 -16 -10 -16 -9 0 -16 7 -16 15 0 12 -7 14 -26 9
-23 -6 -25 -4 -19 15 4 12 2 21 -4 21 -10 0 -15 -14 -12 -32 0 -4 -6 -5 -13
-2 -11 4 -13 0 -9 -15 4 -14 14 -21 32 -22 17 -1 20 -3 9 -6 -29 -7 -21 -23
11 -23 17 0 33 -4 36 -10 9 -14 -44 -25 -58 -11 -16 16 -23 14 -46 -10 -13
-15 -21 -17 -26 -9 -4 7 -1 16 6 21 9 6 4 8 -16 6 -21 -1 -30 3 -30 13 0 8 -4
21 -9 28 -4 7 -5 16 -1 20 3 3 10 0 15 -8 7 -11 11 -11 24 -1 9 8 16 19 15 25
0 7 -2 6 -6 -2 -7 -17 -23 -5 -23 18 0 10 -8 21 -17 24 -15 6 -15 8 -3 16 12
8 12 10 -4 10 -15 0 -16 2 -6 15 7 9 18 14 25 11 6 -2 12 2 12 10 0 16 -30 18
-58 4 -25 -14 -24 1 1 33 11 14 20 32 20 41 0 25 -25 19 -40 -9 -18 -33 -25
-32 -41 8 -7 17 -19 36 -27 41 -10 6 -11 10 -3 16 7 3 -1 7 -17 7 l-29 0 24
-21 c22 -19 23 -24 12 -56 -18 -53 -23 -54 -59 -5 -19 25 -38 45 -42 45 -5 0
0 -10 11 -21 47 -51 59 -122 25 -150 -12 -10 -13 -9 -8 5 3 9 1 16 -5 16 -6 0
-11 -4 -11 -9 0 -5 -14 -14 -31 -20 -20 -7 -29 -16 -27 -27 2 -9 -3 -19 -9
-21 -8 -3 -13 4 -13 16 0 12 -6 21 -15 21 -8 0 -15 5 -15 11 0 6 -7 9 -15 5
-13 -5 -14 -2 -4 15 8 15 8 19 0 15 -6 -4 -11 -2 -11 3 0 6 4 11 9 11 4 0 6
11 3 25 -4 21 -7 23 -19 14 -7 -7 -12 -18 -9 -25 7 -17 -15 -84 -26 -78 -4 3
-8 0 -8 -6 0 -6 13 -13 30 -16 16 -4 28 -9 26 -13 -3 -4 3 -7 12 -8 46 -2 108
-15 116 -23 6 -6 18 -10 28 -10 19 0 25 -34 8 -45 -5 -3 -10 -12 -10 -18 0 -8
3 -8 8 -2 22 31 100 45 95 18 -1 -6 5 -17 14 -25 15 -11 16 -11 10 5 -8 22 12
22 29 0 11 -15 15 -15 23 -4 7 11 13 11 32 0 l24 -13 -25 -7 c-20 -6 -17 -7
12 -5 21 1 41 5 44 9 4 3 16 1 28 -5 11 -6 22 -11 24 -10 1 1 14 2 30 2 24 -1
25 -2 10 -14 -16 -12 -15 -13 12 -14 17 0 30 2 30 6 0 15 105 7 117 -8 10 -12
14 -13 21 -2 8 11 18 11 58 -2 l49 -15 -42 0 c-24 -1 -43 -6 -43 -12 0 -5 4
-8 9 -5 5 4 12 0 14 -6 4 -10 6 -10 6 0 1 6 10 12 21 12 23 0 26 -10 8 -28 -9
-9 -9 -12 0 -12 7 0 12 -16 12 -42 0 -46 18 -43 22 4 2 25 4 26 48 21 25 -3
50 -6 57 -6 6 0 9 -6 6 -14 -3 -8 2 -13 16 -13 12 0 21 6 21 15 0 10 10 15 30
15 17 0 30 -5 30 -11 0 -6 14 -8 36 -4 47 7 104 -13 104 -36 0 -10 5 -21 10
-24 6 -3 10 -15 10 -26 0 -10 7 -19 15 -19 20 0 19 -6 -5 -45 -19 -30 -19 -32
-2 -51 21 -22 35 -54 24 -54 -15 0 -30 16 -36 38 -4 12 -12 22 -18 22 -7 0 -7
-4 0 -13 12 -14 12 -58 1 -52 -3 3 -10 19 -14 37 l-9 33 -3 -32 c-3 -26 -10
-34 -38 -43 -34 -11 -55 -7 -55 11 0 5 15 9 34 9 25 0 35 5 39 20 4 17 0 20
-29 20 -19 0 -34 -5 -34 -11 0 -8 -4 -8 -14 0 -17 15 -226 12 -226 -3 0 -5 -6
-2 -12 7 -7 9 -34 19 -60 22 -38 5 -48 3 -57 -12 -9 -15 -12 -15 -20 -4 -6 9
-10 10 -12 2 -3 -9 -13 -9 -38 0 -30 11 -36 10 -49 -7 -10 -14 -16 -15 -19 -6
-4 10 -8 10 -18 2 -10 -8 -19 -8 -34 -1 -33 18 -40 13 -25 -19 15 -29 16 -29
94 -28 43 1 76 6 73 11 -3 4 11 5 31 2 21 -4 36 -3 36 2 0 5 14 8 30 5 25 -4
29 -8 24 -24 -5 -18 -3 -19 24 -13 23 5 33 2 40 -12 7 -12 22 -18 46 -18 20 0
36 -4 35 -10 0 -5 -11 -9 -24 -7 -25 3 -34 -11 -15 -23 16 -10 12 -35 -5 -29
-8 4 -15 12 -15 20 0 8 -4 14 -10 14 -14 0 -13 -13 2 -28 6 -6 8 -15 4 -19 -4
-4 -10 -3 -14 3 -4 7 -19 10 -34 8 -19 -2 -28 2 -28 12 0 8 5 14 11 14 5 0 7
5 4 10 -5 8 -11 7 -20 0 -10 -8 -19 -8 -35 0 -12 6 -24 9 -27 6 -9 -9 8 -26
28 -26 10 0 19 -6 19 -14 0 -9 -10 -13 -32 -11 -18 2 -44 3 -57 4 -19 1 -21 4
-11 16 6 8 9 20 5 27 -4 7 2 2 13 -12 12 -14 23 -22 26 -19 9 8 -18 59 -29 56
-5 -2 -18 6 -30 17 -26 27 -87 34 -78 9 5 -13 2 -15 -20 -9 -16 4 -27 2 -27
-4 0 -5 5 -10 11 -10 5 0 7 -4 4 -10 -3 -5 3 -10 14 -10 12 0 21 -4 21 -10 0
-5 9 -10 19 -10 11 0 23 -5 26 -10 4 -6 11 -7 17 -4 6 4 6 -2 -1 -15 -14 -25
-31 -28 -31 -5 0 8 -4 13 -9 10 -5 -3 -11 0 -14 8 -6 14 -106 51 -115 42 -3
-3 2 -6 10 -6 9 0 21 -7 28 -15 7 -9 15 -13 18 -11 3 3 21 -7 41 -23 53 -41
59 -43 82 -30 15 7 24 8 28 1 7 -12 43 -11 53 2 6 9 38 -15 38 -28 0 -3 -12
-6 -27 -7 l-28 -1 30 -9 c16 -4 56 -8 88 -8 65 1 81 -6 54 -26 -14 -10 -15
-14 -4 -24 8 -6 17 -8 20 -5 3 3 12 2 19 -2 7 -5 45 -9 83 -10 89 -2 175 -14
175 -25 0 -5 10 -9 21 -9 12 0 40 -5 62 -12 35 -10 41 -10 52 6 9 12 20 16 35
11 16 -5 23 -2 26 12 4 16 15 20 55 21 27 0 49 -2 49 -6 0 -4 19 -6 43 -5 32
2 36 0 17 -5 -18 -6 -21 -10 -12 -16 7 -4 26 -3 41 4 20 8 50 8 107 1 49 -6
80 -6 82 0 6 16 48 10 67 -11 21 -23 35 -26 35 -6 0 16 27 29 41 20 5 -3 9
-12 9 -20 0 -8 5 -15 10 -15 75 -10 147 4 168 32 7 11 21 16 34 14 12 -3 30 3
41 13 16 15 20 15 30 2 8 -11 32 -15 77 -15 36 -1 75 -4 87 -8 16 -6 30 -1 56
23 19 16 43 30 53 30 11 0 25 9 32 20 19 31 60 44 86 27 29 -19 96 -31 96 -17
0 5 19 10 43 10 31 0 38 3 27 10 -20 13 -63 13 -77 -1 -16 -16 -37 -1 -23 16
9 11 6 14 -12 17 -18 2 -9 10 44 35 36 18 69 41 71 50 3 12 5 9 6 -8 1 -23 4
-26 29 -21 15 3 30 10 34 16 5 7 24 7 66 -2 71 -15 112 -15 112 -2 0 6 -4 10
-10 10 -13 0 -12 11 4 32 10 13 22 16 49 11 49 -8 48 -31 0 -36 l-38 -4 36 -1
c22 -1 42 4 49 13 7 8 22 15 34 15 28 0 81 -35 67 -44 -16 -11 -13 -46 4 -46
19 0 56 -20 71 -39 9 -12 12 -11 17 3 4 10 1 16 -9 16 -9 0 -14 6 -11 13 2 6
10 12 18 12 10 0 15 -15 17 -50 2 -41 -2 -58 -23 -89 -14 -20 -23 -41 -20 -46
5 -9 -18 -20 -42 -20 -10 0 -13 6 -9 16 10 27 -10 52 -39 46 -22 -4 -26 -9
-23 -36 2 -25 7 -30 24 -28 12 1 27 -4 34 -13 15 -18 37 -20 43 -2 2 6 8 8 13
4 5 -4 2 -12 -6 -18 -13 -8 -13 -10 -1 -18 12 -8 12 -14 -2 -44 -19 -40 -22
-67 -7 -67 6 0 10 -6 10 -13 0 -6 20 -35 45 -62 25 -28 43 -55 41 -61 -3 -6 6
-16 20 -23 13 -6 24 -17 24 -26 0 -8 7 -15 15 -15 17 0 21 -45 5 -55 -6 -3
-10 -10 -10 -14 0 -13 33 -45 63 -60 15 -8 27 -23 27 -33 0 -10 5 -18 10 -18
6 0 10 -12 10 -26 0 -21 4 -25 20 -21 13 3 21 -1 25 -14 4 -10 12 -19 20 -19
19 0 27 -30 10 -36 -21 -9 -19 -19 8 -32 12 -6 17 -11 11 -11 -7 -1 -8 -16 -2
-49 5 -26 11 -68 15 -94 4 -32 10 -48 20 -48 8 0 13 8 11 18 -2 14 5 18 40 20
23 2 42 8 42 13 0 6 5 7 10 4 6 -3 10 -17 10 -31 l0 -24 1230 0 1230 0 0 3335
0 3335 -1389 0 -1389 0 -5 -21 c-8 -29 2 -76 19 -90 8 -6 14 -20 14 -30 0 -10
5 -21 11 -25 6 -3 8 -15 6 -26 -4 -12 -1 -18 6 -15 8 3 13 -10 14 -39 1 -43 1
-44 -25 -37 -15 3 -29 10 -30 15 -2 5 -10 4 -18 -3 -11 -9 -18 -9 -29 1 -20
17 -21 -9 0 -36 20 -26 19 -32 -8 -29 -13 2 -52 24 -88 49 -35 26 -91 65 -124
86 -77 50 -92 63 -77 68 7 2 10 8 7 12 -7 11 -45 -20 -45 -37 0 -6 -4 -14 -9
-17 -13 -8 -42 4 -35 15 3 5 -1 9 -8 9 -7 0 -37 16 -65 35 -30 20 -50 29 -47
20 8 -19 -9 -19 -45 0 -16 8 -31 12 -33 9 -6 -5 -26 2 -110 40 -32 14 -58 22
-58 17 0 -5 11 -12 25 -15 14 -4 25 -11 25 -16 0 -6 7 -10 16 -10 14 0 104
-48 104 -55 0 -6 -94 27 -107 37 -7 5 -17 7 -23 3 -12 -7 -130 44 -130 56 0 5
-6 6 -14 3 -7 -3 -30 2 -51 10 -65 28 -73 16 -10 -15 35 -17 48 -27 32 -24
-16 3 -35 1 -43 -6 -11 -9 -15 -8 -20 5 -5 13 -9 14 -20 5 -8 -6 -21 -8 -31
-3 -24 10 -22 9 -68 19 -22 4 -47 11 -55 15 -8 4 -28 10 -45 14 l-30 6 28 -16
c16 -9 26 -21 24 -29 -4 -8 9 -17 39 -25 50 -14 56 -26 18 -40 -18 -7 -35 -6
-57 3 -66 28 -127 46 -127 37 0 -6 8 -10 18 -10 9 0 24 -5 32 -11 11 -7 4 -8
-25 -3 -47 8 -117 41 -128 60 -8 14 -47 39 -47 30z m383 -56 c31 -12 50 -30
32 -30 -15 0 -74 30 -80 40 -4 7 -4 11 1 9 5 -2 26 -11 47 -19z m167 -20 c12
-8 11 -10 -7 -10 -12 0 -25 5 -28 10 -8 13 15 13 35 0z m-31 -26 c17 -4 31
-10 31 -15 0 -13 -20 -10 -55 6 -33 15 -24 18 24 9z m98 0 c-3 -3 -12 -4 -19
-1 -8 3 -5 6 6 6 11 1 17 -2 13 -5z m336 -18 c4 -10 1 -13 -8 -9 -8 3 -12 9
-9 14 7 12 11 11 17 -5z m-963 -18 c0 -13 -23 -5 -28 10 -2 7 2 10 12 6 9 -3
16 -11 16 -16z m123 -30 c34 -17 56 -33 49 -36 -16 -5 -117 36 -133 54 -20 24
16 17 84 -18z m208 7 c-1 -15 -24 -12 -29 3 -3 9 2 13 12 10 10 -1 17 -7 17
-13z m136 9 c-3 -3 -12 -4 -19 -1 -8 3 -5 6 6 6 11 1 17 -2 13 -5z m73 -14 c0
-5 -11 -10 -25 -10 -14 0 -25 5 -25 10 0 6 11 10 25 10 14 0 25 -4 25 -10z
m625 -24 c16 -12 34 -26 40 -32 5 -6 21 -19 35 -29 29 -20 26 -19 -65 24 -83
39 -77 34 -69 55 6 17 10 16 59 -18z m-1858 18 c-3 -3 -12 -4 -19 -1 -8 3 -5
6 6 6 11 1 17 -2 13 -5z m1293 -4 c12 -8 9 -10 -12 -10 -16 0 -28 5 -28 10 0
13 20 13 40 0z m-620 -21 c0 -5 -7 -9 -15 -9 -15 0 -20 12 -9 23 8 8 24 -1 24
-14z m435 11 c8 -13 -15 -13 -35 0 -12 8 -11 10 7 10 12 0 25 -4 28 -10z m382
4 c-3 -3 -12 -4 -19 -1 -8 3 -5 6 6 6 11 1 17 -2 13 -5z m-674 -25 c43 -12 49
-29 10 -29 -27 1 -63 20 -63 34 0 8 9 8 53 -5z m260 -46 c-7 -2 -19 -2 -25 0
-7 3 -2 5 12 5 14 0 19 -2 13 -5z m727 -18 c7 -8 16 -15 21 -15 15 0 62 -21
57 -25 -8 -9 -72 17 -91 36 -10 11 -14 19 -9 19 5 0 15 -7 22 -15z m-1050 -25
c0 -5 -2 -10 -4 -10 -3 0 -8 5 -11 10 -3 6 -1 10 4 10 6 0 11 -4 11 -10z
m-365 -30 c-5 -8 -11 -8 -17 -2 -6 6 -7 16 -3 22 5 8 11 8 17 2 6 -6 7 -16 3
-22z m1347 -576 c15 -3 25 -11 23 -17 -13 -33 55 -54 118 -37 28 8 30 8 15 -4
-27 -20 -22 -34 15 -44 24 -7 36 -5 50 7 17 14 20 14 31 -1 8 -10 17 -14 22
-9 9 10 36 14 67 12 24 -1 22 -31 -3 -31 -13 0 -20 -6 -19 -17 0 -11 3 -13 6
-5 2 6 9 12 14 12 14 0 44 -34 44 -50 0 -8 7 -13 15 -11 8 2 20 4 25 5 6 1 16
5 23 9 16 11 54 -2 46 -15 -4 -7 -9 -6 -14 2 -5 8 -9 7 -13 -4 -4 -9 -2 -16 3
-16 6 0 5 -9 -2 -20 -18 -28 3 -45 52 -41 34 2 40 0 40 -18 0 -13 8 -21 22
-23 34 -5 37 -38 4 -38 -31 0 -30 2 -10 -38 15 -32 46 -43 59 -22 10 16 32 -5
40 -37 3 -14 1 -31 -4 -36 -15 -15 -14 -50 1 -65 10 -10 10 -17 1 -31 -7 -10
-9 -27 -7 -38 3 -11 -2 -25 -10 -32 -11 -9 -16 -10 -16 -2 0 24 -29 9 -44 -24
-18 -38 -27 -45 -70 -60 -33 -12 -71 -57 -63 -76 3 -9 8 -6 15 11 l11 25 0
-25 c1 -19 4 -21 13 -12 7 7 16 12 22 12 6 0 5 -5 -2 -12 -19 -19 -14 -45 10
-51 17 -5 19 -9 9 -21 -6 -8 -23 -17 -36 -20 -14 -4 -25 -11 -25 -16 0 -6 -7
-10 -15 -10 -8 0 -15 -7 -15 -15 0 -8 -5 -15 -11 -15 -6 0 -24 -9 -39 -20 -17
-12 -31 -16 -35 -10 -4 6 -13 5 -25 -2 -10 -7 -16 -16 -14 -20 9 -13 -4 -9
-20 8 -9 8 -21 12 -28 8 -7 -5 -3 -11 13 -17 l24 -10 -24 -5 c-13 -2 -27 2
-31 9 -6 9 -14 6 -31 -10 -12 -11 -31 -23 -41 -27 -10 -3 -18 -10 -18 -15 0
-5 -7 -9 -15 -9 -11 0 -15 -11 -15 -35 0 -31 -5 -38 -32 -50 -37 -15 -55 -10
-37 11 17 21 3 29 -26 16 -14 -7 -35 -12 -45 -12 -11 0 -20 -4 -20 -10 0 -5
-8 -10 -18 -10 -10 0 -23 -5 -30 -12 -9 -9 -12 -9 -12 0 0 6 11 14 24 18 17 4
22 11 19 25 -3 10 -11 19 -18 19 -8 0 -22 3 -32 6 -17 5 -17 5 0 -6 27 -17 20
-27 -15 -23 -27 3 -29 1 -13 -6 19 -9 18 -10 -5 -10 -18 -1 -21 -4 -12 -10 10
-6 9 -10 -7 -14 -12 -3 -24 -1 -27 4 -5 9 -55 7 -84 -4 -8 -3 -30 -7 -48 -10
-24 -3 -32 0 -28 10 9 22 -19 15 -49 -13 -23 -21 -35 -25 -64 -20 -20 3 -37
10 -39 15 -4 12 -40 -6 -58 -28 -12 -16 -49 -7 -39 9 4 6 10 8 15 5 4 -3 13 2
20 10 15 18 8 19 -33 2 -47 -20 -110 -31 -102 -18 8 14 -11 14 -36 0 -12 -6
-28 -8 -36 -4 -14 5 -14 7 3 20 19 13 19 14 0 21 -12 5 -23 2 -30 -8 -15 -21
-62 -28 -58 -10 2 11 -7 12 -38 7 -28 -5 -40 -3 -40 5 0 7 7 10 18 6 14 -5 14
-4 -2 9 -24 18 -40 20 -30 3 5 -8 2 -9 -12 -4 -10 5 -23 8 -29 8 -5 0 -33 -1
-62 -3 -46 -1 -52 -4 -50 -22 2 -21 -23 -33 -93 -43 -19 -2 -52 -13 -72 -24
-21 -11 -38 -16 -38 -11 0 15 -40 24 -54 12 -8 -6 -21 -8 -31 -5 -13 5 -14 9
-3 15 9 6 8 9 -7 9 -12 0 -26 -5 -31 -10 -7 -7 -39 -7 -99 -1 -48 6 -92 8 -97
5 -5 -3 -33 -7 -61 -9 -29 -2 -56 -5 -62 -7 -5 -1 -10 1 -10 7 0 17 -59 21
-89 6 -22 -11 -31 -11 -34 -3 -5 17 -38 15 -56 -4 -11 -11 -31 -14 -68 -12
-44 2 -53 6 -50 21 2 9 -2 17 -8 17 -5 0 -10 -6 -11 -12 0 -10 -2 -10 -6 0 -2
6 -9 12 -15 12 -6 0 -8 -7 -4 -15 7 -18 2 -19 -71 -1 -32 8 -70 17 -85 20 -19
4 -28 13 -28 26 0 11 6 20 13 20 6 1 2 6 -11 13 -13 7 -29 25 -37 40 -13 25
-12 27 5 27 22 0 35 16 20 25 -5 3 -10 1 -10 -4 0 -6 -8 -11 -17 -11 -24 0
-27 50 -5 67 10 7 31 13 49 13 36 0 93 29 93 47 0 6 9 18 20 26 13 9 18 20 14
30 -4 11 10 32 40 63 36 37 47 43 52 30 7 -18 22 -20 44 -6 13 9 13 12 -2 21
-31 18 -21 37 25 43 23 3 51 7 62 8 13 2 20 11 20 28 0 22 6 26 63 39 38 9 62
20 62 28 0 7 9 13 21 13 11 0 35 11 52 24 18 13 50 27 72 31 56 10 146 43 159
59 10 13 27 18 114 33 17 3 32 11 32 18 0 7 17 16 38 20 20 4 43 12 51 18 12
11 56 17 122 17 14 0 36 11 49 25 13 14 33 25 44 25 11 0 34 14 51 30 30 29
33 30 83 20 45 -8 57 -7 85 10 17 11 40 20 49 20 20 0 90 37 100 53 4 6 10 8
14 4 4 -4 0 -13 -9 -20 -10 -7 -14 -17 -8 -25 6 -10 10 -10 21 3 7 8 21 15 30
15 31 0 49 11 43 26 -3 8 1 14 11 14 19 0 128 58 138 73 4 6 4 15 2 19 -3 4 2
5 11 2 9 -4 23 0 33 9 27 23 60 38 128 57 56 16 66 17 78 4 20 -20 23 -19 65
23 35 35 35 36 9 30 -14 -4 -34 -4 -44 0 -16 6 -16 7 2 14 18 8 52 6 116 -7z
m411 -149 c4 -8 2 -17 -2 -20 -5 -2 -11 4 -14 15 -6 23 8 27 16 5z m-2573
-795 c0 -5 -4 -10 -9 -10 -6 0 -13 5 -16 10 -3 6 1 10 9 10 9 0 16 -4 16 -10z
m2587 -75 c-7 -14 -17 -25 -24 -25 -8 0 -8 6 0 25 7 14 17 25 24 25 8 0 8 -6
0 -25z m-2775 -7 c-9 -9 -15 -9 -24 0 -9 9 -7 12 12 12 19 0 21 -3 12 -12z
m2698 -58 c0 -5 -5 -10 -11 -10 -5 0 -7 5 -4 10 3 6 8 10 11 10 2 0 4 -4 4
-10z m-2683 -96 c-3 -3 -12 -4 -19 -1 -8 3 -5 6 6 6 11 1 17 -2 13 -5z m2170
-30 c-3 -3 -12 -4 -19 -1 -8 3 -5 6 6 6 11 1 17 -2 13 -5z m33 -4 c0 -5 -5
-10 -11 -10 -5 0 -7 5 -4 10 3 6 8 10 11 10 2 0 4 -4 4 -10z m-793 -6 c-3 -3
-12 -4 -19 -1 -8 3 -5 6 6 6 11 1 17 -2 13 -5z m423 -14 c0 -5 -5 -10 -11 -10
-5 0 -7 5 -4 10 3 6 8 10 11 10 2 0 4 -4 4 -10z m9 -25 c-10 -10 -22 -13 -35
-8 -16 6 -15 8 11 14 17 4 32 7 35 8 2 0 -3 -6 -11 -14z m-216 -22 c-7 -2 -19
-2 -25 0 -7 3 -2 5 12 5 14 0 19 -2 13 -5z m-1198 -13 c3 -5 1 -10 -4 -10 -6
0 -11 5 -11 10 0 6 2 10 4 10 3 0 8 -4 11 -10z m1825 -20 c0 -5 -9 -10 -19
-10 -11 0 -23 5 -26 10 -4 6 5 10 19 10 14 0 26 -4 26 -10z m-2114 -195 c21
-16 38 -20 30 -6 -9 14 120 19 176 7 29 -7 92 -12 141 -11 48 1 87 -2 87 -6 0
-5 7 -9 15 -9 9 0 32 -8 53 -18 46 -22 68 -22 64 1 -2 10 3 17 13 17 9 0 13
-4 10 -10 -3 -5 -1 -10 6 -10 6 0 9 -8 6 -20 -6 -22 18 -29 26 -7 3 7 9 2 15
-13 7 -17 11 -20 11 -8 1 14 28 38 43 38 2 0 3 -24 3 -54 0 -42 -3 -52 -14
-48 -10 4 -13 1 -8 -11 3 -9 2 -17 -3 -17 -6 0 -10 5 -10 11 0 6 -12 -3 -26
-20 -15 -18 -35 -31 -49 -31 -12 0 -39 -7 -58 -15 -20 -8 -39 -15 -43 -15 -3
0 -4 7 0 15 6 17 -29 22 -39 5 -4 -6 -15 -8 -25 -5 -10 3 -21 1 -25 -4 -3 -6
-16 -10 -28 -10 -29 1 -72 -6 -84 -14 -10 -6 -63 10 -100 31 -12 7 -24 8 -27
4 -3 -5 -27 -6 -53 -2 -26 4 -55 4 -64 -1 -10 -5 -20 -4 -27 3 -8 8 -15 8 -27
-2 -8 -7 -33 -13 -55 -13 -22 0 -40 -4 -40 -8 0 -5 -11 -9 -25 -9 -18 0 -23
-4 -19 -15 9 -22 -28 -19 -72 5 -31 18 -44 20 -102 12 -38 -6 -74 -6 -84 -1
-10 6 -26 3 -44 -6 -16 -8 -38 -12 -50 -9 -12 3 -25 1 -28 -5 -4 -6 -15 -11
-25 -11 -10 0 -24 -6 -30 -14 -6 -7 -32 -14 -58 -14 -25 -1 -50 -7 -54 -13 -5
-8 -21 -10 -49 -5 -47 7 -110 -10 -110 -31 0 -7 -11 -19 -25 -25 -14 -6 -25
-15 -25 -20 0 -5 -11 -6 -25 -4 -13 3 -27 1 -30 -3 -2 -5 -17 -6 -31 -3 -18 3
-25 1 -20 -6 3 -6 -2 -13 -13 -17 -11 -3 -22 -12 -25 -20 -6 -16 -36 -21 -36
-6 0 5 8 12 17 15 11 5 13 10 6 17 -14 14 -73 2 -79 -16 -3 -7 -17 -16 -32
-19 -25 -6 -44 -14 -115 -47 -24 -11 -30 -11 -37 1 -15 23 -12 30 13 27 15 -1
22 3 22 16 0 10 8 23 18 28 11 6 17 6 17 0 0 -5 9 -7 20 -4 11 3 20 10 20 15
0 12 68 40 98 40 30 1 28 14 -3 22 -37 9 -31 22 25 53 27 15 50 31 50 36 0 11
-7 9 -50 -13 -50 -25 -60 -25 -28 0 35 27 116 53 144 46 17 -5 23 -2 22 6 -2
9 7 12 27 11 22 -2 26 0 15 7 -12 8 -11 10 8 10 24 0 28 10 10 28 -14 14 27
32 74 32 26 0 29 -2 18 -15 -18 -21 -6 -29 27 -18 27 9 32 31 6 25 -7 -2 -13
2 -13 7 0 6 17 13 38 17 47 9 57 14 41 25 -22 13 -2 22 54 25 68 2 69 2 63 13
-9 14 17 20 107 26 77 4 79 4 40 -8 -60 -17 -66 -30 -11 -24 57 7 69 13 62 32
-4 8 0 17 7 19 110 33 133 36 218 35 56 -1 97 3 104 10 15 15 39 14 63 -4z
m804 -97 c0 -16 -51 -68 -67 -68 -15 0 -18 26 -3 35 18 11 10 26 -10 20 -15
-5 -18 -3 -14 9 8 20 94 23 94 4z m-1540 -28 c0 -5 -2 -10 -4 -10 -3 0 -8 5
-11 10 -3 6 -1 10 4 10 6 0 11 -4 11 -10z m1620 0 c0 -6 -9 -18 -20 -27 -11
-10 -20 -25 -20 -34 0 -21 -18 -36 -55 -44 -25 -6 -28 -5 -17 6 6 7 12 21 12
31 0 10 6 18 13 18 7 0 23 11 35 25 13 14 27 23 32 20 6 -3 10 -1 10 4 0 6 2
11 5 11 3 0 5 -5 5 -10z m57 -5 c3 -10 -36 -40 -43 -33 -2 2 -1 14 3 26 6 23
33 27 40 7z m117 -31 c9 -3 16 -14 16 -23 0 -17 38 -20 73 -6 28 12 50 -1 38
-23 -16 -31 -84 -92 -108 -98 -13 -4 -23 -11 -23 -18 0 -6 -17 -11 -40 -11
-25 -1 -35 2 -27 8 8 5 5 7 -8 5 -14 -3 -19 -11 -18 -26 3 -20 1 -21 -17 -10
-24 15 -26 28 -5 28 8 0 15 2 15 4 0 2 3 12 6 21 6 16 5 16 -24 1 -47 -24 -64
-21 -60 11 2 19 23 43 73 85 71 58 81 63 109 52z m-334 -24 c0 -5 -4 -10 -10
-10 -5 0 -10 5 -10 10 0 6 5 10 10 10 6 0 10 -4 10 -10z m503 -111 c-19 -19
-19 -19 -18 3 0 13 4 29 9 37 7 11 11 10 18 -4 8 -13 5 -22 -9 -36z m-893 1
c0 -5 -2 -10 -4 -10 -3 0 -8 5 -11 10 -3 6 -1 10 4 10 6 0 11 -4 11 -10z m860
-15 c0 -8 -2 -15 -4 -15 -2 0 -12 -3 -21 -7 -15 -5 -16 -3 -6 15 13 25 31 29
31 7z m-2354 -66 c3 -6 0 -15 -7 -20 -19 -12 -49 -11 -49 1 0 6 12 10 28 10
21 0 24 2 12 10 -9 6 -10 10 -3 10 6 0 15 -5 19 -11z m224 -69 c0 -5 -2 -10
-4 -10 -3 0 -8 5 -11 10 -3 6 -1 10 4 10 6 0 11 -4 11 -10z m-170 -39 c0 -10
-25 -21 -48 -21 -12 0 -9 4 8 14 31 17 40 19 40 7z m-246 -56 c4 -11 -2 -15
-21 -15 -21 0 -24 2 -13 15 7 8 16 15 20 15 4 0 10 -7 14 -15z m-84 -35 c0 -5
-5 -10 -11 -10 -5 0 -7 5 -4 10 3 6 8 10 11 10 2 0 4 -4 4 -10z m219 -27 c0
-25 -1 -26 -9 -8 -12 27 -12 35 0 35 6 0 10 -12 9 -27z m920 -32 c16 -48 14
-72 -4 -65 -10 4 -14 14 -10 28 5 17 4 18 -5 6 -9 -12 -10 -11 -5 7 3 12 2 31
-4 41 -10 20 -3 39 9 25 4 -5 12 -23 19 -42z m39 21 c24 -26 42 -59 42 -77 0
-8 4 -15 10 -15 14 0 39 -52 43 -91 2 -19 11 -48 20 -66 10 -18 17 -39 17 -47
0 -17 -42 -32 -60 -21 -6 4 -17 2 -24 -4 -7 -6 -81 -13 -164 -17 l-152 -7 0
36 c0 33 3 37 34 42 31 6 34 10 39 51 2 25 7 47 10 50 6 6 44 -14 75 -40 12
-11 22 -15 22 -10 0 5 -9 18 -21 27 -24 21 -82 143 -76 160 2 7 11 -3 21 -20
19 -38 66 -108 66 -100 0 3 -5 18 -11 34 -7 15 -13 35 -14 43 -1 8 -6 29 -10
45 -16 63 14 9 34 -60 11 -38 20 -63 20 -55 1 8 -3 31 -9 49 -13 48 -5 50 21
7 11 -20 27 -36 35 -36 8 0 14 -4 14 -10 0 -5 5 -10 10 -10 7 0 7 7 0 21 -6
11 -9 25 -7 32 5 14 31 -42 28 -60 -1 -8 4 -10 13 -7 13 5 10 15 -13 57 -28
50 -49 117 -37 117 3 0 14 -8 24 -18z m51 -25 c0 -28 -1 -29 -9 -11 -5 12 -14
25 -20 29 -9 6 -9 10 1 16 20 12 29 1 28 -34z m-194 -18 c9 -17 14 -33 11 -36
-4 -4 -36 49 -36 62 0 13 11 2 25 -26z m895 1 c0 -5 -5 -10 -11 -10 -5 0 -7 5
-4 10 3 6 8 10 11 10 2 0 4 -4 4 -10z m-959 -27 c21 -43 22 -50 4 -28 -25 30
-37 55 -27 55 5 0 15 -12 23 -27z m279 -9 c0 -8 -4 -12 -10 -9 -5 3 -10 10
-10 16 0 5 5 9 10 9 6 0 10 -7 10 -16z m-299 -38 c5 3 9 1 9 -4 0 -6 -7 -12
-15 -16 -11 -4 -15 1 -14 17 0 12 3 16 6 9 2 -6 9 -10 14 -6z m-214 -82 c12
-18 12 -18 7 1 -5 19 -5 19 9 3 8 -10 18 -18 22 -18 5 0 -2 11 -14 24 -13 14
-20 30 -16 36 11 18 45 -44 38 -69 -5 -18 -8 -19 -22 -9 -14 11 -14 11 -5 -2
6 -8 14 -31 18 -50 9 -45 -15 -201 -31 -207 -8 -3 -13 -22 -13 -45 0 -32 3
-39 15 -34 19 7 22 -2 28 -81 5 -59 4 -63 -16 -63 -14 0 -26 -10 -34 -25 -9
-20 -8 -25 2 -25 7 0 15 7 19 15 7 19 70 21 64 3 -3 -7 -16 -19 -30 -26 -14
-6 -29 -23 -32 -37 -4 -14 -11 -23 -16 -20 -6 3 -21 -6 -35 -22 -17 -19 -23
-22 -18 -9 9 26 -24 51 -45 34 -11 -10 -17 -9 -26 3 -13 17 -44 14 -68 -9 -20
-17 -25 -3 -6 16 17 17 2 27 -43 27 -37 0 -53 15 -29 30 6 4 8 11 5 16 -4 5
-4 9 -1 9 2 0 12 3 22 7 12 5 15 3 9 -6 -4 -7 4 -5 19 4 29 19 26 30 -7 30
-32 0 -33 16 -1 34 16 9 37 24 48 34 19 17 19 17 -24 17 -41 0 -42 1 -24 15
16 13 17 16 4 25 -11 7 -7 10 20 9 29 0 32 -2 15 -10 -18 -8 -17 -8 5 -6 14 1
24 8 22 15 -1 7 9 17 23 22 14 5 25 16 25 25 0 21 -20 19 -20 -2 -1 -17 -2
-16 -15 1 -8 10 -12 22 -10 27 3 4 1 9 -5 11 -5 1 -7 13 -4 25 5 18 11 22 29
17 24 -6 39 14 29 41 -5 11 -9 12 -19 2 -7 -7 -10 -16 -7 -22 3 -5 2 -7 -3 -3
-13 12 -16 67 -5 87 5 10 12 33 15 52 10 56 17 47 11 -13 -4 -47 -3 -58 9 -58
10 0 15 10 15 30 0 34 6 36 40 13 24 -15 24 -15 -2 13 -31 33 -38 55 -11 33
15 -13 15 -12 4 8 -10 21 -6 73 6 73 3 0 12 -8 20 -17 10 -12 9 -8 -1 10 -21
35 -10 59 13 30 9 -11 21 -29 28 -39z m63 26 c12 -23 12 -24 -3 -11 -10 7 -17
20 -17 29 0 18 3 16 20 -18z m145 -27 c0 -28 -5 -48 -12 -50 -7 -3 -13 2 -13
11 0 9 6 16 13 17 10 0 10 2 0 6 -21 8 -15 63 6 63 3 0 6 -21 6 -47z m555
-103 c0 -12 -44 -24 -62 -17 -8 3 -4 9 12 15 32 14 50 14 50 2z m-103 -40
c-28 -22 -43 -25 -52 -10 -11 18 6 30 42 30 l36 0 -26 -20z m99 -55 c17 -13
15 -14 -31 -15 -39 0 -53 -4 -62 -20 -12 -19 -2 -37 15 -26 16 10 171 15 177
6 3 -6 20 -10 36 -10 17 0 28 -4 24 -9 -3 -5 -18 -6 -33 -2 -15 4 -33 6 -39 5
-7 -1 -23 -2 -35 -3 -19 -1 -20 -3 -8 -11 12 -8 9 -10 -12 -10 -33 0 -45 -15
-22 -28 11 -6 1 -8 -33 -5 -62 6 -95 -9 -89 -41 5 -30 -7 -49 -29 -44 -26 5
-31 28 -6 28 25 0 26 8 4 32 -16 18 -16 19 5 25 26 6 28 18 6 27 -15 6 -15 8
-1 24 8 9 14 31 13 49 -2 30 0 31 25 26 15 -3 35 0 46 6 24 14 26 14 49 -4z
m-953 -9 c6 -16 -19 -30 -28 -16 -7 11 2 30 15 30 4 0 10 -6 13 -14z m1191
-72 c19 -7 21 -34 3 -34 -14 0 -37 20 -37 32 0 10 13 10 34 2z m-2660 -80 c4
-10 1 -14 -6 -12 -15 5 -23 28 -10 28 5 0 13 -7 16 -16z m2451 -34 c7 -12 -12
-12 -40 0 -18 8 -17 9 7 9 15 1 30 -3 33 -9z m-123 -95 c20 -27 49 -55 64 -63
24 -13 25 -16 11 -24 -12 -6 -22 -5 -33 6 -8 9 -26 16 -40 16 -16 0 -24 6 -24
18 0 12 -8 17 -25 17 -14 0 -25 -2 -25 -5 1 -17 43 -51 77 -61 24 -8 44 -22
51 -37 l11 -24 -27 18 -27 17 19 -21 c10 -12 27 -24 37 -27 11 -4 19 -10 19
-15 0 -4 -16 -3 -35 3 -19 6 -35 14 -35 19 0 4 -5 8 -11 8 -7 0 -18 8 -25 17
-17 24 -32 7 -16 -17 17 -27 9 -25 -40 10 -22 17 -49 30 -60 30 -22 0 -22 2
-3 -49 8 -23 10 -39 5 -36 -6 3 -10 1 -10 -4 0 -6 6 -12 13 -12 6 -1 14 -2 17
-2 3 0 15 -11 27 -24 20 -21 21 -23 4 -23 -10 0 -30 9 -44 20 -41 32 -42 23
-3 -20 38 -42 49 -64 19 -38 -10 9 -23 13 -30 11 -14 -5 -43 35 -43 59 0 9
-16 33 -35 54 -40 42 -47 59 -11 25 14 -14 26 -18 30 -12 4 5 13 8 21 4 8 -3
15 0 15 6 0 6 -7 11 -15 11 -8 0 -15 5 -15 10 0 6 7 10 15 10 8 0 15 7 15 15
0 14 12 20 34 16 5 -1 16 1 24 4 11 4 12 8 2 20 -7 8 -9 15 -5 15 4 0 14 -8
21 -17 12 -17 13 -16 14 5 0 12 -7 25 -15 28 -11 5 -11 9 -2 19 6 7 17 10 24
8 9 -3 10 6 6 32 -8 50 10 44 59 -20z m337 -4 c13 -8 8 -31 -7 -31 -17 1 -34
19 -28 29 9 13 16 14 35 2z m-2449 -27 c0 -3 -6 -12 -14 -20 -16 -15 -32 -2
-21 16 7 11 35 14 35 4z m2185 -5 c11 -17 2 -18 -25 -4 -24 14 -24 14 -3 15
12 0 25 -5 28 -11z m-2205 -49 c0 -6 -5 -19 -12 -29 -11 -17 -14 -18 -35 -4
-24 16 -22 38 3 29 8 -3 14 -1 14 4 0 6 7 10 15 10 8 0 15 -5 15 -10z m1570
-40 c6 0 8 5 5 10 -4 6 5 10 20 10 15 0 24 -4 20 -10 -3 -5 -2 -10 4 -10 6 0
13 -11 17 -25 5 -21 9 -23 25 -14 10 5 19 19 19 30 0 16 4 18 28 13 15 -4 29
-10 32 -14 11 -16 110 -33 110 -19 0 5 5 9 11 9 6 0 9 -7 5 -15 -3 -9 0 -15 9
-15 7 0 17 -10 21 -22 4 -13 17 -39 30 -58 13 -19 24 -39 24 -44 0 -5 -14 12
-31 37 -33 51 -35 52 -73 37 -21 -8 -26 -16 -26 -45 0 -19 -5 -35 -11 -35 -6
0 -9 -6 -6 -14 3 -8 -1 -22 -8 -33 -14 -17 -14 -17 -15 5 0 20 -2 21 -21 11
-13 -7 -19 -7 -15 -1 3 6 2 13 -4 17 -5 3 -10 18 -11 33 0 24 -1 25 -9 7 -8
-19 -9 -19 -9 3 -1 34 -21 26 -21 -8 0 -16 -5 -30 -11 -30 -7 0 -9 10 -5 28 5
20 4 23 -4 12 -5 -8 -10 -32 -10 -52 0 -21 -3 -38 -8 -38 -4 0 -7 12 -7 28 0
41 -16 41 -37 0 -24 -45 -41 -50 -27 -9 6 17 9 40 7 53 -5 25 -3 28 -30 -44
-6 -16 -14 -28 -19 -28 -5 0 -2 17 7 38 9 20 20 48 25 62 10 24 10 24 -10 5
-20 -17 -26 -14 -21 10 1 5 -7 1 -18 -8 -14 -13 -21 -15 -24 -6 -7 22 -48 -14
-60 -53 -13 -46 -27 -50 -23 -8 1 20 13 41 34 59 17 15 31 38 31 49 0 13 6 22
14 22 22 0 28 17 15 38 -10 15 -8 23 12 46 22 26 24 26 31 6 4 -11 12 -20 18
-20z m660 20 c13 -8 13 -10 -2 -10 -9 0 -20 5 -23 10 -8 13 5 13 25 0z m-2599
-34 c-15 -6 -25 -6 -33 2 -9 9 -8 12 5 12 9 0 17 5 17 11 0 8 5 7 16 -2 15
-12 14 -14 -5 -23z m2809 14 c0 -5 -7 -7 -15 -4 -8 4 -15 8 -15 10 0 2 7 4 15
4 8 0 15 -4 15 -10z m-2480 -21 c0 -5 -4 -9 -10 -9 -5 0 -10 7 -10 16 0 8 5
12 10 9 6 -3 10 -10 10 -16z m2300 11 c0 -5 -7 -7 -15 -4 -8 4 -15 8 -15 10 0
2 7 4 15 4 8 0 15 -4 15 -10z m35 -28 c-3 -3 -11 0 -18 7 -9 10 -8 11 6 5 10
-3 15 -9 12 -12z m-3215 -2 c0 -5 -4 -10 -10 -10 -5 0 -10 5 -10 10 0 6 5 10
10 10 6 0 10 -4 10 -10z m890 -6 c0 -16 -15 -32 -26 -27 -21 8 -17 29 6 29 11
0 20 -1 20 -2z m2380 -14 c11 -7 12 -12 3 -21 -8 -8 -14 -6 -22 10 -12 22 -5
27 19 11z m-3290 -10 c0 -5 -10 -10 -22 -10 -19 0 -20 2 -8 10 19 13 30 13 30
0z m890 -44 c0 -29 -10 -38 -29 -27 -17 11 -5 51 15 51 8 0 14 -10 14 -24z
m158 -68 c17 -17 15 -38 -3 -38 -8 0 -15 4 -15 9 0 5 -3 16 -6 25 -7 19 7 21
24 4z m2153 -28 c10 -6 19 -15 19 -20 0 -14 -34 -12 -48 2 -26 26 -7 37 29 18z
m-691 -54 c0 -3 -4 -8 -10 -11 -5 -3 -10 -1 -10 4 0 6 5 11 10 11 6 0 10 -2
10 -4z m610 -40 c0 -2 -9 -6 -20 -9 -11 -3 -18 -1 -14 4 5 9 34 13 34 5z
m-2120 -37 c0 -14 -17 -10 -23 5 -4 10 -1 13 9 9 7 -3 14 -9 14 -14z m312 -77
c-7 -2 -12 -8 -12 -13 0 -6 5 -7 12 -3 7 5 8 3 3 -6 -14 -23 -37 18 -23 43 10
19 11 20 21 2 7 -14 7 -20 -1 -23z m-395 -28 c-3 -4 -14 -3 -24 0 -15 6 -15 8
-3 16 16 10 39 -4 27 -16z m233 16 c0 -5 -4 -10 -10 -10 -5 0 -10 5 -10 10 0
6 5 10 10 10 6 0 10 -4 10 -10z m3391 -222 c-23 -6 -37 -6 -44 1 -8 8 2 11 34
10 l44 -1 -34 -10z m-141 -38 c0 -5 -7 -10 -15 -10 -8 0 -15 5 -15 10 0 6 7
10 15 10 8 0 15 -4 15 -10z m-13 -26 c-3 -3 -12 -4 -19 -1 -8 3 -5 6 6 6 11 1
17 -2 13 -5z m-852 -154 c11 -17 -5 -32 -21 -19 -8 6 -14 15 -14 20 0 12 27
11 35 -1z m152 -6 c-3 -3 -12 -4 -19 -1 -8 3 -5 6 6 6 11 1 17 -2 13 -5z
m-372 -34 c10 -11 13 -20 7 -20 -6 0 -16 9 -22 20 -6 11 -9 20 -7 20 2 0 12
-9 22 -20z m-727 -74 c-14 -51 -16 -53 -44 -30 -13 11 -15 17 -6 20 6 3 12 13
12 21 0 9 6 13 14 10 8 -3 17 1 20 9 3 9 1 12 -4 9 -12 -7 -12 -3 -4 20 6 15
8 15 16 2 5 -9 3 -34 -4 -61z m502 55 c13 -25 13 -54 0 -46 -5 3 -7 12 -3 20
3 8 1 15 -5 15 -5 0 -12 7 -16 15 -8 22 12 18 24 -4z m-60 -61 c0 -5 -4 -10
-9 -10 -6 0 -13 5 -16 10 -3 6 1 10 9 10 9 0 16 -4 16 -10z m-495 -44 c12 -11
10 -17 -9 -35 -23 -22 -24 -22 -37 -3 -8 10 -24 19 -36 18 -38 -2 -26 19 14
25 21 3 42 7 46 8 5 0 15 -5 22 -13z m115 -26 c11 -7 12 -12 3 -21 -8 -8 -14
-6 -22 10 -12 22 -5 27 19 11z m340 -32 c0 -4 -13 -8 -30 -8 -16 0 -30 5 -30
10 0 6 14 9 30 8 17 -1 30 -6 30 -10z m70 -8 c0 -5 -5 -10 -11 -10 -5 0 -7 5
-4 10 3 6 8 10 11 10 2 0 4 -4 4 -10z m-390 -20 c0 -5 -7 -10 -16 -10 -8 0
-12 5 -9 10 3 6 10 10 16 10 5 0 9 -4 9 -10z m253 -5 c-3 -9 -8 -14 -10 -11
-3 3 -2 9 2 15 9 16 15 13 8 -4z m124 -1 c-3 -3 -12 -4 -19 -1 -8 3 -5 6 6 6
11 1 17 -2 13 -5z m1753 -126 c0 -17 -10 -6 -25 25 l-16 32 20 -25 c11 -14 21
-28 21 -32z m-1585 -28 c3 -5 1 -10 -4 -10 -6 0 -11 5 -11 10 0 6 2 10 4 10 3
0 8 -4 11 -10z m79 -25 c-4 -8 -10 -15 -15 -15 -5 0 -9 7 -9 15 0 8 7 15 15
15 9 0 12 -6 9 -15z m373 -57 c-3 -7 -5 -2 -5 12 0 14 2 19 5 13 2 -7 2 -19 0
-25z m271 -12 c-7 -8 -15 -12 -17 -11 -5 6 10 25 20 25 5 0 4 -6 -3 -14z m130
-11 c-3 -3 -9 2 -12 12 -6 14 -5 15 5 6 7 -7 10 -15 7 -18z m-425 -15 c-3 -13
0 -20 9 -20 19 0 88 -59 88 -76 0 -18 -9 -18 -32 3 -17 15 -18 15 -18 -6 0
-12 4 -19 10 -16 6 3 10 2 10 -2 0 -5 -18 -9 -39 -9 -31 0 -38 3 -34 15 4 13
3 14 -5 2 -6 -8 -24 -15 -40 -15 -29 -1 -30 1 -26 37 5 54 22 81 40 66 11 -9
14 -8 14 5 0 9 -6 16 -12 16 -9 0 -8 4 2 10 25 16 39 12 33 -10z m78 4 c11
-14 13 -14 21 0 5 9 15 13 24 9 15 -5 15 -7 0 -15 -20 -11 -21 -32 -1 -24 8 3
15 1 15 -4 0 -6 -4 -10 -10 -10 -5 0 -10 -9 -10 -20 0 -17 -2 -17 -26 7 -27
27 -49 73 -35 73 5 0 14 -7 22 -16z m144 -5 c0 -8 5 -17 10 -21 6 -5 -5 -5
-23 -2 -28 6 -34 4 -39 -15 -6 -24 -23 -29 -23 -6 0 19 50 66 65 61 6 -1 10
-9 10 -17z m41 -16 c-7 -7 -26 7 -26 19 0 6 6 6 15 -2 9 -7 13 -15 11 -17z
m174 -12 c0 -10 -19 -36 -22 -31 -34 53 -36 75 -3 54 14 -9 25 -19 25 -23z
m100 22 c0 -5 -4 -14 -9 -21 -7 -11 -9 -11 -14 1 -3 8 -3 18 0 21 9 8 23 7 23
-1z m-216 -24 c-3 -5 -10 -7 -15 -3 -5 3 -7 10 -3 15 3 5 10 7 15 3 5 -3 7
-10 3 -15z m64 2 c3 -10 -2 -11 -18 -6 -17 5 -21 4 -15 -6 6 -11 5 -11 -5 -2
-7 6 -9 16 -5 23 9 14 37 9 43 -9z m102 -5 c0 -3 -4 -8 -10 -11 -5 -3 -10 -1
-10 4 0 6 5 11 10 11 6 0 10 -2 10 -4z m-194 -41 c7 -17 34 -21 34 -5 0 6 5
10 11 10 6 0 8 -8 4 -19 -4 -12 0 -21 11 -25 9 -4 15 -9 12 -11 -3 -3 -18 1
-34 10 -16 8 -35 15 -41 15 -7 0 -13 2 -13 4 0 2 -3 11 -6 20 -3 9 -1 16 5 16
7 0 14 -7 17 -15z m124 -17 c0 -13 -32 -6 -37 9 -3 7 3 9 16 6 12 -3 21 -10
21 -15z m-230 2 c0 -5 -4 -10 -9 -10 -6 0 -13 5 -16 10 -3 6 1 10 9 10 9 0 16
-4 16 -10z m30 -24 c0 -2 -9 -6 -20 -9 -11 -3 -20 -1 -20 4 0 5 9 9 20 9 11 0
20 -2 20 -4z m96 -84 c-12 -11 -15 5 -8 44 l7 39 3 -39 c2 -21 1 -41 -2 -44z
m-901 48 c3 -5 -1 -10 -9 -10 -9 0 -16 5 -16 10 0 6 4 10 9 10 6 0 13 -4 16
-10z m50 -10 c3 -5 1 -10 -4 -10 -6 0 -11 5 -11 10 0 6 2 10 4 10 3 0 8 -4 11
-10z m524 1 c9 -6 10 -11 2 -15 -6 -4 -11 -2 -11 5 0 7 -10 9 -25 7 -14 -3
-25 -1 -25 3 0 11 41 11 59 0z m51 -1 c0 -5 -4 -10 -10 -10 -5 0 -10 5 -10 10
0 6 5 10 10 10 6 0 10 -4 10 -10z m-430 -15 c0 -8 -7 -15 -15 -15 -16 0 -20
12 -8 23 11 12 23 8 23 -8z m56 -10 c4 -9 11 -15 18 -14 24 3 37 -1 31 -10 -7
-12 -59 5 -76 25 -9 11 -8 14 5 14 9 0 19 -7 22 -15z m-16 -35 c0 -5 -7 -10
-15 -10 -8 0 -15 5 -15 10 0 6 7 10 15 10 8 0 15 -4 15 -10z m1930 -50 c0 -5
-4 -10 -10 -10 -5 0 -10 5 -10 10 0 6 5 10 10 10 6 0 10 -4 10 -10z m-2287
-12 c-6 -11 -31 -10 -37 1 -3 5 5 8 18 7 13 0 22 -4 19 -8z m325 -25 c2 -9 -5
-12 -22 -11 -14 1 -26 8 -26 16 0 17 42 12 48 -5z m382 13 c0 -3 -4 -8 -10
-11 -5 -3 -10 -1 -10 4 0 6 5 11 10 11 6 0 10 -2 10 -4z m-245 -36 c8 -13 -5
-13 -25 0 -13 8 -13 10 2 10 9 0 20 -4 23 -10z m-55 -10 c0 -11 -37 -19 -60
-13 -34 9 -22 22 20 21 22 0 40 -4 40 -8z m-209 -15 c3 2 5 -5 6 -15 2 -24
-10 -26 -27 -5 -7 8 -20 15 -29 16 -12 0 -11 2 4 8 11 5 25 5 31 0 6 -5 13 -7
15 -4z m116 -1 c-3 -3 -12 -4 -19 -1 -8 3 -5 6 6 6 11 1 17 -2 13 -5z m103
-41 c0 -8 -13 -12 -35 -11 -30 1 -32 3 -17 14 21 15 52 14 52 -3z m-85 -3 c4
-6 -8 -10 -29 -10 -19 0 -38 5 -41 10 -4 6 8 10 29 10 19 0 38 -4 41 -10z
m943 -2 c-5 -15 -48 -24 -48 -10 0 14 12 22 33 22 10 0 17 -5 15 -12z m-743
-29 c-7 -10 -35 -1 -35 11 0 5 9 6 20 3 11 -3 17 -9 15 -14z m655 1 c0 -5 -2
-10 -4 -10 -3 0 -8 5 -11 10 -3 6 -1 10 4 10 6 0 11 -4 11 -10z m300 -5 c0 -9
-6 -12 -16 -8 -13 5 -13 7 -2 14 17 11 18 11 18 -6z m-1090 -5 c0 -6 -20 -10
-45 -10 -25 0 -45 4 -45 8 0 4 20 9 45 10 25 1 45 -3 45 -8z m50 -2 c0 -4 -9
-8 -20 -8 -11 0 -20 4 -20 9 0 6 9 9 20 8 11 -1 20 -5 20 -9z m80 -18 c0 -12
-8 -12 -35 0 -18 8 -17 9 8 9 15 1 27 -3 27 -9z m170 -10 c0 -17 -5 -19 -25
-14 -15 4 -25 2 -25 -5 0 -14 -45 -14 -71 -1 -32 18 -21 29 17 18 24 -6 39 -6
43 0 5 8 27 17 54 21 4 0 7 -8 7 -19z m375 0 c-27 -12 -35 -12 -35 0 0 6 12
10 28 9 24 0 25 -1 7 -9z m225 -10 c0 -5 -5 -10 -11 -10 -5 0 -7 5 -4 10 3 6
8 10 11 10 2 0 4 -4 4 -10z m-570 -10 c0 -5 -2 -10 -4 -10 -3 0 -8 5 -11 10
-3 6 -1 10 4 10 6 0 11 -4 11 -10z m480 6 c0 -3 -4 -8 -10 -11 -5 -3 -10 -1
-10 4 0 6 5 11 10 11 6 0 10 -2 10 -4z m1610 -416 c0 -5 -4 -10 -10 -10 -5 0
-10 5 -10 10 0 6 5 10 10 10 6 0 10 -4 10 -10z m206 -376 c-9 -6 -16 -17 -16
-25 -1 -10 -4 -9 -11 3 -7 12 -6 24 1 39 9 17 14 18 27 8 13 -12 13 -14 -1
-25z"/>
<path d="M6748 5723 c7 -3 16 -2 19 1 4 3 -2 6 -13 5 -11 0 -14 -3 -6 -6z"/>
<path d="M6785 5720 c3 -5 8 -10 11 -10 2 0 4 5 4 10 0 6 -5 10 -11 10 -5 0
-7 -4 -4 -10z"/>
<path d="M6884 5645 c11 -8 22 -12 25 -9 6 6 -19 24 -34 24 -5 -1 -1 -7 9 -15z"/>
<path d="M6940 5649 c0 -5 5 -7 10 -4 6 3 10 8 10 11 0 2 -4 4 -10 4 -5 0 -10
-5 -10 -11z"/>
<path d="M6490 5641 l-25 -7 25 -7 c35 -9 37 -9 44 8 6 16 -4 17 -44 6z"/>
<path d="M7060 5610 c0 -5 5 -10 10 -10 6 0 10 5 10 10 0 6 -4 10 -10 10 -5 0
-10 -4 -10 -10z"/>
<path d="M6440 5550 c0 -5 5 -10 10 -10 6 0 10 5 10 10 0 6 -4 10 -10 10 -5 0
-10 -4 -10 -10z"/>
<path d="M7440 5272 c0 -6 -8 -13 -17 -15 -16 -4 -16 -5 -1 -6 18 -1 34 16 24
26 -3 4 -6 1 -6 -5z"/>
<path d="M7280 5251 c0 -5 8 -12 18 -14 16 -4 16 -5 0 -6 -10 0 -18 -6 -18
-12 0 -7 8 -6 22 3 32 22 34 38 4 38 -14 0 -26 -4 -26 -9z"/>
<path d="M7440 5140 c0 -5 5 -10 10 -10 6 0 10 5 10 10 0 6 -4 10 -10 10 -5 0
-10 -4 -10 -10z"/>
<path d="M7258 5103 c7 -3 16 -2 19 1 4 3 -2 6 -13 5 -11 0 -14 -3 -6 -6z"/>
<path d="M7245 5080 c-3 -5 -1 -10 4 -10 6 0 11 5 11 10 0 6 -2 10 -4 10 -3 0
-8 -4 -11 -10z"/>
<path d="M7345 5050 c3 -5 8 -10 11 -10 2 0 4 5 4 10 0 6 -5 10 -11 10 -5 0
-7 -4 -4 -10z"/>
<path d="M7115 4830 c-7 -12 2 -12 30 0 19 8 19 9 -2 9 -12 1 -25 -3 -28 -9z"/>
<path d="M7185 4830 c3 -5 8 -10 11 -10 2 0 4 5 4 10 0 6 -5 10 -11 10 -5 0
-7 -4 -4 -10z"/>
<path d="M6960 4720 c0 -5 -6 -7 -14 -4 -8 3 -23 1 -33 -5 -16 -9 -16 -10 -1
-11 9 0 23 -3 31 -6 10 -3 20 3 27 15 7 14 7 21 0 21 -5 0 -10 -4 -10 -10z"/>
<path d="M6900 4680 c0 -5 5 -10 10 -10 6 0 10 5 10 10 0 6 -4 10 -10 10 -5 0
-10 -4 -10 -10z"/>
<path d="M6774 4653 c11 -11 46 -14 46 -3 0 6 -12 10 -27 10 -14 0 -23 -3 -19
-7z"/>
<path d="M6367 4589 c-24 -14 -11 -32 14 -19 10 6 19 15 19 20 0 13 -10 12
-33 -1z"/>
<path d="M5534 4565 c8 -8 21 -15 28 -15 8 1 6 6 -6 15 -26 20 -42 19 -22 0z"/>
<path d="M5655 4560 l-30 -8 33 -1 c17 0 32 4 32 9 0 6 -1 9 -2 9 -2 -1 -16
-5 -33 -9z"/>
<path d="M5140 4546 c0 -2 7 -6 15 -10 8 -3 15 -1 15 4 0 6 -7 10 -15 10 -8 0
-15 -2 -15 -4z"/>
<path d="M4785 4520 c-4 -6 7 -10 25 -10 18 0 29 4 25 10 -3 6 -15 10 -25 10
-10 0 -22 -4 -25 -10z"/>
<path d="M3968 4123 c6 -2 18 -2 25 0 6 3 1 5 -13 5 -14 0 -19 -2 -12 -5z"/>
<path d="M3745 4060 c-3 -5 1 -10 10 -10 9 0 13 5 10 10 -3 6 -8 10 -10 10 -2
0 -7 -4 -10 -10z"/>
<path d="M3518 3893 c7 -3 16 -2 19 1 4 3 -2 6 -13 5 -11 0 -14 -3 -6 -6z"/>
<path d="M4330 3481 c0 -5 5 -13 10 -16 6 -3 10 -2 10 4 0 5 -4 13 -10 16 -5
3 -10 2 -10 -4z"/>
<path d="M4266 3471 c-3 -4 1 -17 8 -27 13 -17 14 -17 9 9 -6 29 -9 32 -17 18z"/>
<path d="M3908 3303 c7 -3 16 -2 19 1 4 3 -2 6 -13 5 -11 0 -14 -3 -6 -6z"/>
<path d="M3725 2950 c-3 -5 -1 -10 4 -10 6 0 11 5 11 10 0 6 -2 10 -4 10 -3 0
-8 -4 -11 -10z"/>
<path d="M3764 2876 c-30 -23 -12 -27 21 -6 18 12 24 20 14 20 -8 0 -24 -6
-35 -14z"/>
<path d="M4576 3161 c-10 -15 21 -33 51 -29 17 2 29 10 31 21 3 14 -4 17 -37
17 -22 0 -42 -4 -45 -9z"/>
<path d="M4496 2852 c-3 -6 -1 -14 5 -17 14 -9 20 -2 10 14 -6 8 -11 9 -15 3z"/>
<path d="M3990 2789 c0 -5 5 -7 10 -4 6 3 10 8 10 11 0 2 -4 4 -10 4 -5 0 -10
-5 -10 -11z"/>
<path d="M4081 2714 c0 -11 3 -14 6 -6 3 7 2 16 -1 19 -3 4 -6 -2 -5 -13z"/>
<path d="M5155 1390 c3 -5 8 -10 11 -10 2 0 4 5 4 10 0 6 -5 10 -11 10 -5 0
-7 -4 -4 -10z"/>
<path d="M5574 6605 c21 -16 32 -13 21 4 -3 6 -14 11 -23 11 -15 -1 -15 -2 2
-15z"/>
<path d="M4930 6395 c-15 -18 -13 -20 19 -30 20 -6 23 -4 18 10 -4 9 -7 21 -7
26 0 14 -16 11 -30 -6z"/>
<path d="M1855 4300 c-3 -5 -3 -15 1 -21 6 -11 23 6 24 24 0 10 -18 9 -25 -3z"/>
<path d="M2285 3020 c-3 -5 -1 -10 4 -10 6 0 11 5 11 10 0 6 -2 10 -4 10 -3 0
-8 -4 -11 -10z"/>
<path d="M2043 2750 c-1 -11 2 -18 8 -15 11 7 12 35 1 35 -4 0 -8 -9 -9 -20z"/>
<path d="M5532 2508 c-18 -18 -14 -30 6 -19 10 6 28 7 40 4 25 -6 30 12 6 21
-24 9 -39 7 -52 -6z"/>
<path d="M2597 2459 c7 -7 15 -10 18 -7 3 3 -2 9 -12 12 -14 6 -15 5 -6 -5z"/>
<path d="M5530 2395 c0 -11 5 -27 10 -35 8 -12 10 -12 10 5 0 11 -5 27 -10 35
-8 12 -10 12 -10 -5z"/>
<path d="M5595 2390 c-3 -5 -1 -10 4 -10 6 0 11 5 11 10 0 6 -2 10 -4 10 -3 0
-8 -4 -11 -10z"/>
<path d="M2326 2335 c-4 -14 -4 -30 -1 -35 12 -20 23 -9 27 25 5 41 -16 49
-26 10z"/>
<path d="M2888 2343 c6 -2 12 -11 12 -19 0 -22 36 -17 37 6 1 16 -4 20 -30 19
-18 0 -26 -3 -19 -6z"/>
<path d="M2320 2256 c0 -8 -3 -23 -7 -33 -6 -16 -5 -16 10 -4 19 15 22 37 7
46 -5 3 -10 0 -10 -9z"/>
<path d="M3330 2170 l-25 -7 25 -6 c55 -12 154 -26 158 -23 4 5 -91 26 -116
26 -15 0 -15 2 -2 10 13 9 13 10 0 9 -8 -1 -26 -4 -40 -9z"/>
<path d="M3270 2160 c0 -5 4 -10 9 -10 6 0 13 5 16 10 3 6 -1 10 -9 10 -9 0
-16 -4 -16 -10z"/>
<path d="M3965 2130 c-3 -5 -1 -10 4 -10 6 0 11 5 11 10 0 6 -2 10 -4 10 -3 0
-8 -4 -11 -10z"/>
<path d="M3856 2054 c-10 -27 -6 -40 8 -21 8 11 21 15 32 11 18 -5 18 -5 0 10
-25 20 -32 20 -40 0z"/>
<path d="M4300 1991 c0 -6 5 -13 10 -16 6 -3 10 1 10 9 0 9 -4 16 -10 16 -5 0
-10 -4 -10 -9z"/>
<path d="M4498 1993 c7 -3 16 -2 19 1 4 3 -2 6 -13 5 -11 0 -14 -3 -6 -6z"/>
<path d="M3140 1870 c-9 -6 -10 -10 -3 -10 6 0 15 5 18 10 8 12 4 12 -15 0z"/>
<path d="M4450 1850 c0 -5 5 -10 11 -10 5 0 7 5 4 10 -3 6 -8 10 -11 10 -2 0
-4 -4 -4 -10z"/>
<path d="M4348 1826 c-18 -13 -14 -26 8 -26 14 0 27 27 16 34 -4 2 -15 -1 -24
-8z"/>
<path d="M1770 1770 c-11 -7 -11 -11 -1 -24 9 -11 10 -16 2 -16 -14 0 -15 -47
-1 -55 6 -3 10 -17 10 -30 0 -13 4 -26 9 -30 5 -3 12 -19 16 -35 5 -21 12 -30
27 -30 13 0 18 5 15 14 -3 8 1 20 9 26 16 14 20 90 4 90 -5 0 -13 12 -16 28
-11 47 -48 78 -74 62z m44 -76 c9 -3 16 -13 16 -21 0 -20 -34 -12 -38 10 -4
19 -1 20 22 11z"/>
<path d="M4231 1746 c-8 -9 -11 -19 -7 -23 9 -9 29 13 24 27 -2 8 -8 7 -17 -4z"/>
<path d="M2815 1730 c3 -5 8 -10 11 -10 2 0 4 5 4 10 0 6 -5 10 -11 10 -5 0
-7 -4 -4 -10z"/>
<path d="M2695 1710 c3 -5 8 -10 11 -10 2 0 4 5 4 10 0 6 -5 10 -11 10 -5 0
-7 -4 -4 -10z"/>
<path d="M2367 1696 c-3 -8 -2 -18 3 -21 13 -8 24 15 12 27 -6 6 -11 4 -15 -6z"/>
<path d="M2661 1691 c-7 -5 -15 -20 -16 -33 -3 -23 -1 -24 21 -14 13 6 19 13
14 14 -6 2 -10 10 -10 18 0 9 5 12 10 9 6 -3 10 -1 10 4 0 13 -10 14 -29 2z"/>
<path d="M3895 1690 c-3 -5 -2 -10 4 -10 5 0 13 5 16 10 3 6 2 10 -4 10 -5 0
-13 -4 -16 -10z"/>
<path d="M3586 1644 c-9 -24 -7 -27 9 -10 17 17 19 26 6 26 -5 0 -12 -7 -15
-16z"/>
<path d="M4053 1645 c-7 -21 4 -32 19 -17 9 9 9 12 -1 12 -7 0 -9 5 -6 10 3 6
4 10 0 10 -3 0 -8 -7 -12 -15z"/>
<path d="M2405 1621 c-3 -5 -1 -12 5 -16 5 -3 10 1 10 9 0 18 -6 21 -15 7z"/>
<path d="M2796 1623 c-11 -11 -7 -20 9 -20 8 0 15 4 15 8 0 11 -16 20 -24 12z"/>
<path d="M2867 1609 c-4 -16 -3 -18 9 -8 16 13 19 29 5 29 -5 0 -11 -9 -14
-21z"/>
<path d="M3978 1613 c7 -3 16 -2 19 1 4 3 -2 6 -13 5 -11 0 -14 -3 -6 -6z"/>
<path d="M4148 1613 c7 -3 16 -2 19 1 4 3 -2 6 -13 5 -11 0 -14 -3 -6 -6z"/>
<path d="M2930 1580 c0 -16 4 -30 8 -30 5 0 7 14 4 30 -2 17 -6 30 -8 30 -2 0
-4 -13 -4 -30z"/>
<path d="M3210 1590 c0 -11 4 -20 9 -20 5 0 7 9 4 20 -3 11 -7 20 -9 20 -2 0
-4 -9 -4 -20z"/>
<path d="M3648 1603 c7 -3 16 -2 19 1 4 3 -2 6 -13 5 -11 0 -14 -3 -6 -6z"/>
<path d="M3753 1584 c-3 -8 -2 -19 3 -24 5 -5 10 1 10 16 2 27 -4 31 -13 8z"/>
<path d="M3780 1585 c0 -8 2 -15 4 -15 2 0 6 7 10 15 3 8 1 15 -4 15 -6 0 -10
-7 -10 -15z"/>
<path d="M2792 1570 c-7 -11 -8 -20 -3 -20 9 0 24 30 18 36 -1 2 -8 -6 -15
-16z"/>
<path d="M2868 1579 c-10 -5 -18 -17 -18 -24 0 -20 6 -19 30 5 30 30 24 40
-12 19z"/>
<path d="M3670 1570 c0 -5 7 -7 15 -3 9 3 15 2 14 -3 -4 -21 2 -44 11 -44 5 0
7 7 4 15 -7 18 0 19 27 4 18 -9 19 -8 8 9 -7 11 -19 18 -26 15 -7 -3 -13 0
-13 6 0 6 -9 11 -20 11 -11 0 -20 -4 -20 -10z"/>
<path d="M2976 1553 c-6 -14 -5 -15 5 -6 7 7 10 15 7 18 -3 3 -9 -2 -12 -12z"/>
<path d="M2567 1546 c-4 -10 -1 -13 9 -9 7 3 14 9 14 14 0 14 -17 10 -23 -5z"/>
<path d="M3375 1533 c8 -15 15 -34 15 -41 0 -7 4 -11 9 -7 5 3 12 1 16 -5 6
-10 -7 -14 -34 -11 -7 2 -11 -4 -9 -11 3 -7 12 -12 21 -10 10 2 23 -10 32 -28
15 -30 29 -42 20 -17 -7 18 -16 78 -16 112 -1 17 -3 22 -6 13 -6 -24 -16 -23
-28 4 -6 12 -16 23 -22 26 -9 2 -8 -4 2 -25z"/>
<path d="M3444 1549 c-3 -5 6 -9 20 -9 31 0 34 6 6 13 -11 3 -23 1 -26 -4z"/>
<path d="M3810 1546 c0 -18 16 -29 30 -21 6 4 5 12 -4 21 -18 18 -26 18 -26 0z"/>
<path d="M3040 1538 c0 -5 -9 -8 -20 -8 -17 0 -16 -4 12 -30 35 -34 40 -36 32
-15 -4 8 -1 15 6 15 9 0 11 -11 7 -37 -5 -34 -5 -36 8 -19 8 10 19 15 25 11 9
-5 10 -1 6 13 -4 12 -2 30 4 42 12 22 1 27 -18 8 -9 -9 -12 -7 -12 9 0 16 -6
21 -25 19 -14 0 -25 -4 -25 -8z"/>
<path d="M3868 1543 c10 -4 10 -8 2 -19 -15 -17 -6 -30 25 -36 23 -5 24 -4 12
11 -8 9 -17 24 -20 34 -4 9 -12 17 -19 16 -10 0 -10 -2 0 -6z"/>
<path d="M3770 1530 c0 -5 5 -10 10 -10 6 0 10 5 10 10 0 6 -4 10 -10 10 -5 0
-10 -4 -10 -10z"/>
<path d="M2917 1523 c-4 -3 -7 -11 -7 -17 0 -7 3 -7 8 0 4 7 16 14 27 17 19 5
19 5 -1 6 -11 0 -24 -2 -27 -6z"/>
<path d="M3300 1515 c0 -8 5 -15 10 -15 6 0 10 7 10 15 0 8 -4 15 -10 15 -5 0
-10 -7 -10 -15z"/>
<path d="M3198 1498 c-11 -17 -12 -29 -5 -45 16 -35 24 -27 25 22 1 25 0 45
-2 45 -2 0 -10 -10 -18 -22z m12 -18 c0 -5 -5 -10 -11 -10 -5 0 -7 5 -4 10 3
6 8 10 11 10 2 0 4 -4 4 -10z"/>
<path d="M2817 1503 c-4 -3 -7 -11 -7 -17 0 -6 5 -5 12 2 6 6 9 14 7 17 -3 3
-9 2 -12 -2z"/>
<path d="M3150 1489 c0 -5 5 -7 10 -4 6 3 10 8 10 11 0 2 -4 4 -10 4 -5 0 -10
-5 -10 -11z"/>
<path d="M3271 1484 c0 -11 3 -14 6 -6 3 7 2 16 -1 19 -3 4 -6 -2 -5 -13z"/>
<path d="M3674 1492 c3 -5 0 -12 -6 -15 -10 -4 -10 -7 -1 -16 7 -6 11 -8 8 -5
-3 4 0 13 6 20 7 8 6 14 -2 20 -7 4 -9 3 -5 -4z"/>
<path d="M4825 1480 c-3 -5 -1 -10 4 -10 6 0 11 5 11 10 0 6 -2 10 -4 10 -3 0
-8 -4 -11 -10z"/>
<path d="M2955 1455 c0 -18 3 -21 13 -13 6 6 12 14 12 18 0 4 -6 10 -12 13 -8
3 -13 -4 -13 -18z"/>
<path d="M3010 1465 c-8 -9 -8 -15 -2 -15 12 0 26 19 19 26 -2 2 -10 -2 -17
-11z"/>
<path d="M3938 1473 c7 -3 16 -2 19 1 4 3 -2 6 -13 5 -11 0 -14 -3 -6 -6z"/>
<path d="M3140 1460 c0 -5 5 -10 10 -10 6 0 10 5 10 10 0 6 -4 10 -10 10 -5 0
-10 -4 -10 -10z"/>
<path d="M2925 1450 c3 -5 8 -10 11 -10 2 0 4 5 4 10 0 6 -5 10 -11 10 -5 0
-7 -4 -4 -10z"/>
<path d="M3630 1447 c0 -8 -7 -17 -15 -21 -8 -3 -15 0 -15 6 0 6 -3 9 -6 5 -3
-3 -2 -13 3 -21 8 -14 12 -13 32 8 14 15 19 26 12 31 -6 3 -11 0 -11 -8z"/>
<path d="M4020 1446 c0 -19 -16 -21 -23 -3 -4 9 -6 9 -6 -1 -1 -7 11 -17 27
-23 29 -12 40 -18 85 -48 20 -13 25 -21 17 -26 -7 -4 -16 -2 -20 4 -4 7 -18
14 -31 16 -13 1 -32 6 -43 10 -16 7 -17 5 -11 -23 4 -21 3 -32 -4 -32 -6 0
-11 5 -11 10 0 6 -4 10 -9 10 -5 0 -7 -8 -5 -17 3 -10 15 -18 27 -18 12 -1 37
-4 55 -8 l32 -7 -20 23 c-13 14 -17 23 -9 26 6 2 14 0 18 -5 3 -5 32 -9 64 -9
42 0 57 4 57 14 0 11 3 11 15 1 12 -10 13 -15 4 -21 -8 -4 -4 -9 12 -14 14 -5
25 -3 27 3 2 7 15 6 37 -4 41 -17 45 -17 45 -4 0 6 -9 10 -20 10 -11 0 -20 7
-20 15 0 8 -8 15 -17 15 -10 1 -33 14 -52 30 -36 31 -51 31 -51 -1 0 -10 -5
-19 -11 -19 -5 0 -7 5 -4 10 3 6 1 10 -5 10 -7 0 -21 12 -32 26 -14 17 -27 24
-40 21 -11 -3 -31 5 -48 20 -24 19 -30 21 -30 9z m30 -126 c0 -5 -4 -10 -10
-10 -5 0 -10 5 -10 10 0 6 5 10 10 10 6 0 10 -4 10 -10z"/>
<path d="M3296 1441 c-4 -5 -2 -12 3 -15 5 -4 12 -2 15 3 4 5 2 12 -3 15 -5 4
-12 2 -15 -3z"/>
<path d="M3120 1430 c0 -5 5 -10 11 -10 5 0 7 5 4 10 -3 6 -8 10 -11 10 -2 0
-4 -4 -4 -10z"/>
<path d="M3836 1425 c-15 -8 -36 -15 -45 -15 -9 0 -22 -5 -29 -12 -7 -7 -12
-8 -12 -2 0 6 6 16 13 23 10 10 9 11 -5 6 -10 -4 -18 -11 -18 -16 0 -4 -8 -6
-17 -3 -14 4 -13 1 4 -14 22 -19 21 -32 -3 -32 -7 0 -15 14 -19 30 -7 32 -24
42 -21 13 0 -10 -9 -22 -21 -28 -26 -11 -30 -40 -9 -52 8 -4 16 -12 18 -18 2
-5 6 -9 11 -7 4 1 7 -3 7 -8 0 -5 7 -10 16 -10 9 0 18 -9 21 -20 6 -23 14 -25
33 -7 9 8 8 3 -3 -15 -15 -23 -15 -27 -1 -32 23 -9 37 3 23 20 -9 11 -7 14 15
14 31 0 32 4 5 31 -11 11 -18 24 -14 27 4 4 11 -1 16 -11 10 -17 49 -25 49 -9
0 11 -16 34 -24 33 -45 -6 -64 12 -24 22 15 4 30 -1 43 -13 29 -27 69 -27 60
-1 -9 29 11 34 28 7 18 -27 7 -46 -26 -46 -16 0 -17 -3 -7 -15 10 -12 10 -15
-3 -15 -9 0 -19 5 -22 10 -4 6 -11 5 -20 -4 -17 -17 -8 -59 11 -52 7 3 16 1
19 -4 4 -6 15 -10 25 -10 10 0 25 -7 34 -15 8 -8 21 -15 30 -15 8 0 18 -5 22
-12 5 -8 0 -9 -14 -6 -12 4 -22 2 -22 -4 0 -6 11 -8 24 -6 18 4 26 0 29 -13 4
-16 9 -17 36 -8 17 6 31 15 31 20 0 5 -3 8 -7 8 -36 -6 -106 43 -96 67 3 8 0
15 -6 15 -6 1 -16 2 -23 3 -6 0 -13 7 -16 14 -3 11 0 12 15 4 10 -6 25 -7 32
-3 9 6 7 10 -8 14 -28 7 -27 27 2 27 20 1 20 2 5 11 -10 5 -18 18 -18 28 0 21
-47 64 -55 51 -3 -5 -12 -7 -19 -4 -8 3 -17 1 -21 -5 -3 -6 2 -11 12 -11 17
-1 17 -1 1 -11 -17 -10 -58 7 -58 23 0 5 -12 8 -27 8 l-27 0 23 17 c23 15 25
15 41 -5 l18 -21 4 23 c4 17 1 23 -9 19 -7 -3 -13 -1 -13 4 0 5 12 14 28 20
15 6 23 11 17 12 -5 0 -23 -6 -39 -14z m-116 -94 c0 -14 -12 -20 -26 -14 -22
8 -17 32 6 26 11 -3 20 -9 20 -12z"/>
<path d="M2995 1420 c-4 -6 -5 -10 -3 -11 25 -6 38 -6 38 1 0 12 -29 20 -35
10z"/>
<path d="M3269 1418 c0 -2 -2 -24 -3 -50 -1 -45 -1 -46 12 -23 16 32 26 32 18
0 -5 -19 -2 -25 10 -25 13 0 14 -3 5 -13 -11 -14 -5 -27 11 -27 5 0 6 5 2 11
-5 9 1 10 22 5 l29 -8 -26 29 c-15 15 -29 39 -32 53 -5 20 -44 59 -48 48z"/>
<path d="M3499 1386 c-14 -30 -14 -36 -2 -36 17 0 26 21 21 51 -3 18 -5 16
-19 -15z"/>
<path d="M3200 1405 c0 -18 19 -40 26 -32 4 4 0 15 -9 24 -9 10 -17 13 -17 8z"/>
<path d="M4170 1400 c0 -5 5 -10 10 -10 6 0 10 5 10 10 0 6 -4 10 -10 10 -5 0
-10 -4 -10 -10z"/>
<path d="M3539 1389 c15 -15 51 -20 51 -7 0 4 -6 8 -14 8 -8 0 -22 3 -32 7
-16 6 -16 5 -5 -8z"/>
<path d="M3870 1396 c0 -2 7 -6 15 -10 8 -3 15 -1 15 4 0 6 -7 10 -15 10 -8 0
-15 -2 -15 -4z"/>
<path d="M3930 1390 c0 -5 9 -10 20 -10 11 0 20 5 20 10 0 6 -9 10 -20 10 -11
0 -20 -4 -20 -10z"/>
<path d="M3596 1355 c-8 -23 -8 -27 4 -20 6 3 10 1 10 -6 0 -10 3 -10 12 -1
10 10 9 16 -4 28 -14 14 -16 14 -22 -1z"/>
<path d="M4970 1360 c0 -5 5 -10 11 -10 5 0 7 5 4 10 -3 6 -8 10 -11 10 -2 0
-4 -4 -4 -10z"/>
<path d="M3355 1340 c3 -5 8 -10 11 -10 2 0 4 5 4 10 0 6 -5 10 -11 10 -5 0
-7 -4 -4 -10z"/>
<path d="M4730 1335 c-9 -10 -16 -12 -20 -5 -4 7 -15 8 -30 2 -23 -9 -23 -9
10 -20 38 -14 70 -16 69 -4 0 4 -4 15 -8 25 -6 17 -8 18 -21 2z"/>
<path d="M4358 1323 c6 -2 12 -11 12 -20 0 -20 24 -11 28 10 3 13 -4 17 -25
16 -15 0 -22 -3 -15 -6z"/>
<path d="M4490 1320 c0 -5 7 -10 16 -10 8 0 12 5 9 10 -3 6 -10 10 -16 10 -5
0 -9 -4 -9 -10z"/>
<path d="M4780 1321 c0 -6 5 -13 10 -16 6 -3 10 1 10 9 0 9 -4 16 -10 16 -5 0
-10 -4 -10 -9z"/>
<path d="M4820 1320 c-12 -8 -10 -10 8 -10 13 0 20 4 17 10 -7 12 -6 12 -25 0z"/>
<path d="M3161 1304 c0 -11 3 -14 6 -6 3 7 2 16 -1 19 -3 4 -6 -2 -5 -13z"/>
<path d="M3443 1308 c-16 -20 -25 -68 -13 -68 5 0 10 7 10 16 0 8 5 12 11 9 6
-4 8 -13 5 -21 -3 -8 1 -14 9 -14 8 0 15 -8 15 -17 1 -14 4 -12 14 6 16 28 10
55 -10 47 -17 -6 -38 20 -30 39 7 18 2 19 -11 3z"/>
<path d="M3545 1300 c-3 -5 -1 -10 4 -10 6 0 11 5 11 10 0 6 -2 10 -4 10 -3 0
-8 -4 -11 -10z"/>
<path d="M3580 1282 c0 -6 -14 -13 -31 -17 -16 -4 -28 -12 -26 -18 5 -15 39
-23 35 -8 -2 5 6 16 17 24 11 9 17 19 12 23 -4 4 -7 2 -7 -4z"/>
<path d="M4000 1280 c0 -5 5 -10 10 -10 6 0 10 5 10 10 0 6 -4 10 -10 10 -5 0
-10 -4 -10 -10z"/>
<path d="M4037 1282 c-4 -4 -3 -19 0 -31 4 -16 11 -21 24 -18 11 3 19 0 19 -6
0 -7 5 -6 13 2 10 11 9 14 -1 18 -7 3 -21 14 -32 25 -10 11 -20 15 -23 10z"/>
<path d="M3614 1266 c-8 -20 -1 -29 20 -24 13 3 13 6 1 22 -13 17 -15 18 -21
2z"/>
<path d="M4156 1269 c3 -5 17 -9 31 -9 32 0 24 11 -11 14 -14 2 -23 -1 -20 -5z"/>
<path d="M4220 1270 c0 -13 28 -25 38 -16 3 4 0 11 -8 16 -20 13 -30 12 -30 0z"/>
<path d="M3367 1239 c7 -7 15 -10 18 -7 3 3 -2 9 -12 12 -14 6 -15 5 -6 -5z"/>
<path d="M4147 1243 c-12 -19 2 -39 37 -51 46 -17 48 -15 18 16 -15 15 -30 27
-34 25 -3 -2 -8 2 -10 9 -3 9 -6 9 -11 1z"/>
<path d="M1457 1229 c7 -7 15 -10 18 -7 3 3 -2 9 -12 12 -14 6 -15 5 -6 -5z"/>
<path d="M3692 1225 c-11 -13 -9 -15 8 -15 11 0 20 7 20 15 0 19 -11 19 -28 0z"/>
<path d="M4220 1230 c0 -5 7 -10 16 -10 8 0 12 5 9 10 -3 6 -10 10 -16 10 -5
0 -9 -4 -9 -10z"/>
<path d="M4096 1214 c-9 -23 -8 -24 22 -23 15 0 21 3 15 6 -7 2 -13 11 -13 19
0 19 -16 18 -24 -2z"/>
<path d="M4011 1207 c2 -10 7 -18 12 -18 4 1 19 1 35 1 20 0 23 3 12 9 -8 6
-18 7 -22 4 -5 -2 -16 1 -25 8 -13 11 -15 11 -12 -4z"/>
<path d="M1360 1185 c0 -11 11 -15 40 -15 29 0 40 4 40 15 0 11 -11 15 -40 15
-29 0 -40 -4 -40 -15z"/>
<path d="M3476 1158 c-3 -16 -2 -37 3 -45 6 -12 11 -8 20 17 14 42 14 47 -3
53 -9 4 -16 -4 -20 -25z"/>
<path d="M3625 1180 c3 -5 8 -10 11 -10 2 0 4 5 4 10 0 6 -5 10 -11 10 -5 0
-7 -4 -4 -10z"/>
<path d="M4551 1181 c-10 -6 -9 -10 3 -14 8 -3 18 -2 21 3 8 13 -9 20 -24 11z"/>
<path d="M3644 1159 c-17 -19 -16 -19 14 -8 36 12 38 15 18 22 -8 3 -22 -3
-32 -14z"/>
<path d="M4160 1170 c0 -5 5 -10 11 -10 5 0 7 5 4 10 -3 6 -8 10 -11 10 -2 0
-4 -4 -4 -10z"/>
<path d="M4030 1162 c0 -5 21 -13 47 -17 41 -6 45 -9 31 -19 -15 -11 -15 -13
3 -24 26 -16 32 -15 25 5 -4 9 -1 20 5 24 16 10 -15 25 -68 34 -26 4 -43 3
-43 -3z"/>
<path d="M1440 1139 c0 -5 5 -7 10 -4 6 3 10 8 10 11 0 2 -4 4 -10 4 -5 0 -10
-5 -10 -11z"/>
<path d="M3770 1140 c20 -13 33 -13 25 0 -3 6 -14 10 -23 10 -15 0 -15 -2 -2
-10z"/>
<path d="M4625 1130 c-3 -5 -1 -10 4 -10 6 0 11 5 11 10 0 6 -2 10 -4 10 -3 0
-8 -4 -11 -10z"/>
<path d="M1456 1104 c-22 -8 -54 -30 -73 -50 -25 -27 -40 -35 -60 -32 -16 2
-27 8 -25 16 1 6 -2 12 -8 12 -5 0 -10 -4 -10 -9 0 -30 -86 -21 -95 10 -4 10
-11 19 -16 19 -15 0 -10 -37 6 -44 11 -4 15 -23 16 -78 1 -40 3 -65 6 -55 7
27 19 20 18 -10 0 -23 4 -28 25 -28 34 0 38 -35 7 -70 -20 -24 -23 -34 -16
-69 13 -68 11 -87 -11 -93 -18 -5 -24 -20 -17 -40 1 -5 13 -7 26 -5 14 2 36 1
49 -3 l25 -6 -22 -15 c-29 -21 -28 -47 2 -39 17 5 19 4 7 -4 -12 -9 -13 -14
-2 -31 6 -11 12 -26 12 -34 0 -8 6 -17 13 -19 6 -3 4 -6 -7 -6 -26 -1 -58 -41
-52 -64 6 -25 -3 -47 -19 -47 -8 0 -17 -9 -20 -20 -4 -12 -16 -30 -28 -40 -18
-17 -18 -20 -4 -20 9 0 17 -4 17 -10 0 -5 -7 -10 -16 -10 -8 0 -12 -5 -9 -10
4 -6 16 -8 28 -5 13 4 17 3 11 -2 -20 -14 -26 -50 -10 -56 10 -4 14 -20 12
-56 -2 -28 1 -51 6 -51 4 0 8 -7 8 -15 0 -13 64 -15 515 -15 434 0 515 2 515
14 0 15 -21 26 -48 26 -9 0 -23 12 -30 28 -11 24 -11 28 8 41 11 7 20 20 20
28 0 7 6 16 14 19 10 4 8 11 -11 30 -27 27 -48 31 -56 10 -4 -11 -1 -13 10 -9
11 4 14 2 9 -5 -9 -16 -41 -15 -66 1 -17 10 -22 9 -29 -2 -7 -11 -17 -12 -43
-5 -30 9 -33 13 -36 54 -2 29 -6 39 -12 30 -7 -12 -11 -12 -25 0 -21 18 -45
64 -45 88 0 11 -7 25 -15 32 -9 8 -13 21 -9 36 5 20 3 23 -10 18 -20 -8 -46
13 -46 37 0 10 -10 21 -21 24 -15 5 -18 9 -9 15 20 12 2 89 -27 116 -19 18
-32 22 -52 17 -36 -8 -41 -12 -41 -29 0 -11 6 -13 20 -9 11 4 20 2 20 -4 0 -6
-9 -11 -20 -11 -11 0 -20 -4 -20 -10 0 -16 -14 -12 -39 11 -18 17 -22 28 -17
54 5 25 2 37 -11 47 -10 7 -23 22 -29 33 -7 13 -24 21 -48 23 -35 3 -36 4 -37
45 -1 42 -1 47 8 80 4 12 0 17 -13 17 -11 0 -27 7 -37 14 -16 12 -16 14 -1 20
8 3 24 6 34 6 14 0 19 10 22 48 5 41 5 62 -1 127 -1 18 -13 17 -65 -1z m64
-24 c0 -5 -5 -10 -11 -10 -5 0 -7 5 -4 10 3 6 8 10 11 10 2 0 4 -4 4 -10z
m-135 -80 c3 -5 -1 -10 -9 -10 -9 0 -16 5 -16 10 0 6 4 10 9 10 6 0 13 -4 16
-10z m75 -161 c0 -5 -4 -9 -10 -9 -5 0 -10 7 -10 16 0 8 5 12 10 9 6 -3 10
-10 10 -16z m-180 -95 c0 -14 -4 -23 -10 -19 -5 3 -10 15 -10 26 0 10 5 19 10
19 6 0 10 -12 10 -26z m248 -54 c7 -12 8 -20 2 -20 -5 0 -10 5 -10 10 0 6 -6
10 -14 10 -8 0 -18 5 -21 10 -3 6 2 10 12 10 10 0 24 -9 31 -20z m60 -148 c11
-2 18 -32 8 -32 -2 0 -13 -3 -23 -6 -15 -5 -16 -4 -3 6 12 9 9 10 -15 5 -16
-4 -33 -11 -36 -16 -3 -6 -6 2 -7 18 0 25 3 28 31 27 18 -1 38 -2 45 -2z"/>
<path d="M4150 1100 c0 -6 8 -13 18 -16 9 -3 25 -10 34 -15 23 -12 28 -11 28
2 0 5 -16 17 -35 25 -41 17 -45 17 -45 4z"/>
<path d="M4245 1090 c3 -5 11 -10 16 -10 6 0 7 5 4 10 -3 6 -11 10 -16 10 -6
0 -7 -4 -4 -10z"/>
<path d="M4320 1090 c0 -5 5 -10 11 -10 5 0 7 5 4 10 -3 6 -8 10 -11 10 -2 0
-4 -4 -4 -10z"/>
<path d="M6561 1084 c0 -11 3 -14 6 -6 3 7 2 16 -1 19 -3 4 -6 -2 -5 -13z"/>
<path d="M6888 1076 c-26 -20 -23 -21 32 -18 27 2 50 8 50 14 0 5 -4 7 -9 3
-5 -3 -12 -1 -16 5 -9 14 -36 12 -57 -4z"/>
<path d="M4312 1055 c-9 -11 -19 -12 -37 -5 -31 12 -43 -5 -14 -21 25 -13 69
5 69 28 0 16 -2 16 -18 -2z"/>
<path d="M1318 1053 c7 -3 16 -2 19 1 4 3 -2 6 -13 5 -11 0 -14 -3 -6 -6z"/>
<path d="M3950 1056 c0 -2 7 -6 15 -10 8 -3 15 -1 15 4 0 6 -7 10 -15 10 -8 0
-15 -2 -15 -4z"/>
<path d="M3730 1030 c0 -5 5 -10 11 -10 5 0 7 5 4 10 -3 6 -8 10 -11 10 -2 0
-4 -4 -4 -10z"/>
<path d="M4350 1030 c0 -5 9 -10 21 -10 11 0 17 5 14 10 -3 6 -13 10 -21 10
-8 0 -14 -4 -14 -10z"/>
<path d="M4400 1030 c0 -9 70 -23 77 -16 7 6 -10 12 -49 19 -16 2 -28 1 -28
-3z"/>
<path d="M6377 1000 c-22 -26 -21 -30 3 -30 15 0 20 7 20 25 0 30 -1 30 -23 5z"/>
<path d="M4625 990 c-19 -8 -19 -9 2 -9 12 -1 25 4 28 9 7 12 -2 12 -30 0z"/>
<path d="M4341 986 c2 -2 18 -6 34 -10 22 -5 26 -4 15 4 -14 9 -59 15 -49 6z"/>
<path d="M4435 980 c4 -6 11 -8 16 -5 14 9 11 15 -7 15 -8 0 -12 -5 -9 -10z"/>
<path d="M6272 968 c6 -18 28 -21 28 -4 0 9 -7 16 -16 16 -9 0 -14 -5 -12 -12z"/>
<path d="M4448 943 c6 -2 18 -2 25 0 6 3 1 5 -13 5 -14 0 -19 -2 -12 -5z"/>
<path d="M5240 924 c0 -9 10 -14 30 -14 17 0 30 2 30 4 0 2 -13 9 -30 15 -24
8 -30 7 -30 -5z"/>
<path d="M5197 919 c7 -7 15 -10 18 -7 3 3 -2 9 -12 12 -14 6 -15 5 -6 -5z"/>
<path d="M1520 840 c0 -5 5 -10 10 -10 6 0 10 5 10 10 0 6 -4 10 -10 10 -5 0
-10 -4 -10 -10z"/>
<path d="M1860 495 c0 -8 5 -15 10 -15 6 0 10 7 10 15 0 8 -4 15 -10 15 -5 0
-10 -7 -10 -15z"/>
<path d="M1148 263 c7 -3 16 -2 19 1 4 3 -2 6 -13 5 -11 0 -14 -3 -6 -6z"/>
<path d="M7200 120 c0 -5 5 -10 11 -10 5 0 7 5 4 10 -3 6 -8 10 -11 10 -2 0
-4 -4 -4 -10z"/>
<path d="M2306 72 c-3 -5 1 -15 9 -22 16 -14 20 -3 6 19 -5 8 -11 9 -15 3z"/>
<path d="M4320 40 c0 -17 5 -20 27 -17 34 5 41 23 11 31 -35 9 -38 8 -38 -14z"/>
</g>
</svg>
